<?xml version="1.0" encoding="utf-8" standalone="yes"?>
<!DOCTYPE svg PUBLIC "-//W3C//DTD SVG 1.1//EN" "http://www.w3.org/Graphics/SVG/1.1/DTD/svg11.dtd">
<svg width="938" height="530" viewBox="0 0 938 530" style="fill:none;stroke:none;fill-rule:evenodd;clip-rule:evenodd;stroke-linecap:round;stroke-linejoin:round;stroke-miterlimit:1.5;" version="1.1" xmlns="http://www.w3.org/2000/svg" xmlns:xlink="http://www.w3.org/1999/xlink"><style id="fontImports">@import url("https://fonts.googleapis.com/css2?family=Roboto:wght@400;700&amp;display=block");</style><rect id="" x="0" y="0" width="938" height="530" style="fill: #ffffff;"></rect><g id="items" style="isolation: isolate"><g id="blend" style="mix-blend-mode: normal"><g id="g-root-tf_1luwde4wiil1n-fill" data-item-order="-494208" transform="translate(-9, -9)"><g id="tf_1luwde4wiil1n-fill" stroke="none" fill="#ffffff"><g><path d="M 10 10L 946 10L 946 538L 10 538Z"></path></g></g></g><g id="g-root-1.bubble-1_fr_90vu18wih4ox-fill" data-item-order="-383606" transform="translate(39, 63)"><g id="1.bubble-1_fr_90vu18wih4ox-fill" stroke="none" fill="#fffbda"><g><path d="M 202 58L 10 58C 10.000001 31.4903 10 10 10 10L 202 10.000046L 202 58ZM 202 130L 202 58L 10 58L 10.000004 130L 202 130ZM 10 130L 10 178L 117.068 178C 142.719 178 170 178 195 172C 195 172 202 163 202 130L 10 130Z"></path></g></g></g><g id="g-root-5.bubble-5_fr_1hfpccswih4hv-fill" data-item-order="-383580" transform="translate(39, 255)"><g id="5.bubble-5_fr_1hfpccswih4hv-fill" stroke="none" fill="#edf4ff"><g><path d="M 202 58L 10 58C 10.000001 31.4903 10 10 10 10L 202 10.000046L 202 58ZM 202 106L 202 58L 10 58L 10.000004 106L 202 106ZM 10 106L 10 154L 147.5 154C 157.734 154 175.637 153.3677 183 148L 194.5 138.5C 198 135 201.215 130.9087 201.549 123.8146C 201.785 118.7946 202 113.0268 202 108.6307L 202 106L 10 106Z"></path></g></g></g><g id="g-root-2.bubble-2_fr_qtesp8wih4hx-fill" data-item-order="-383548" transform="translate(255, 75)"><g id="2.bubble-2_fr_qtesp8wih4hx-fill" stroke="none" fill="#f4ffdc"><g><path d="M 202 58L 10 58C 10.000001 31.4903 10 10 10 10L 202 10.000046L 202 58ZM 202 142L 202 58L 10 58L 10.000004 142L 202 142ZM 202 142L 202 190L 64.5 190C 54.2659 190 36.3634 189.3677 29 184L 17.5 174.5C 14 171 10.7851 166.9087 10.451 159.8146C 10.2146 154.7946 10 149.0268 10 144.6307L 10 142L 202 142Z"></path></g></g></g><g id="g-root-3.bubble-3_fr_4mba30wih6vj-fill" data-item-order="-383518" transform="translate(471, 63)"><g id="3.bubble-3_fr_4mba30wih6vj-fill" stroke="none" fill="#e3fff2"><g><path d="M 10.000004 106L 202 106.000063C 202 132.5097 202 154 202 154L 10 154L 10.000004 106ZM 202 106L 202 58L 10 58L 10.000004 106L 202 106ZM 202 58L 202 10.000009L 94.9317 10C 70.4032 9.999998 45.9672 13.0082 22.171 18.9572L 19.0896 19.7276C 13.7476 21.0631 10.000003 25.8629 10.000002 31.3693L 10 58L 202 58Z"></path></g></g></g><g id="g-root-4.bubble-4_fr_1lwrsngwih5vt-fill" data-item-order="-383488" transform="translate(687, 75)"><g id="4.bubble-4_fr_1lwrsngwih5vt-fill" stroke="none" fill="#e8f9ff"><g><path d="M 10.000004 130L 202 130.000063C 202 156.5097 202 178 202 178L 10 178L 10.000004 130ZM 202 130L 202 58L 10 58L 10.000004 130L 202 130ZM 10 58L 10 10.000009L 117.068 10C 142.719 9.999998 170 9.999996 195 16C 195 16 202 25 202 58L 10 58Z"></path></g></g></g><g id="g-root-tx_frontend_djtpl8wih538-fill" data-item-order="0" transform="translate(81, 87)"><g id="tx_frontend_djtpl8wih538-fill" stroke="none" fill="#e0cb15"><g><text style="font: bold 20px Roboto, sans-serif; white-space: pre;" font-weight="bold" font-size="20px" font-family="Roboto, sans-serif"><tspan x="23.85" y="34" dominant-baseline="ideographic">Frontend </tspan><tspan x="14.34" y="58" dominant-baseline="ideographic">Experience</tspan></text></g></g></g><g id="g-root-tx_planning_4g2j7wwiijgo-fill" data-item-order="0" transform="translate(303, 99)"><g id="tx_planning_4g2j7wwiijgo-fill" stroke="none" fill="#92bd39"><g><text style="font: bold 20px Roboto, sans-serif; white-space: pre;" font-weight="bold" font-size="20px" font-family="Roboto, sans-serif"><tspan x="18.38" y="34" dominant-baseline="ideographic">Planning </tspan><tspan x="13.14" y="58" dominant-baseline="ideographic">Capability</tspan></text></g></g></g><g id="g-root-tx_teststra_zjfj64wiikui-fill" data-item-order="0" transform="translate(501, 87)"><g id="tx_teststra_zjfj64wiikui-fill" stroke="none" fill="#3cc583"><g><text style="font: bold 20px Roboto, sans-serif; white-space: pre;" font-weight="bold" font-size="20px" font-family="Roboto, sans-serif"><tspan x="15.92" y="34" dominant-baseline="ideographic">Test Strategy</tspan></text></g></g></g><g id="g-root-tx_complexf_1unf07gwiij2k-fill" data-item-order="0" transform="translate(735, 99)"><g id="tx_complexf_1unf07gwiij2k-fill" stroke="none" fill="#1eabda"><g><text style="font: bold 20px Roboto, sans-serif; white-space: pre;" font-weight="bold" font-size="20px" font-family="Roboto, sans-serif"><tspan x="15.9" y="34" dominant-baseline="ideographic">Complex </tspan><tspan x="16.27" y="58" dominant-baseline="ideographic">Features</tspan></text></g></g></g><g id="g-root-tx_implemen_m8lhvwwiij9n-fill" data-item-order="0" transform="translate(501, 123)"><g id="tx_implemen_m8lhvwwiij9n-fill" stroke="none" fill="#3cc583"><g><text style="font: 15px Roboto, sans-serif; white-space: pre;" font-size="15px" font-family="Roboto, sans-serif"><tspan x="12.83" y="31" dominant-baseline="ideographic">Implementation of </tspan><tspan x="19.25" y="49" dominant-baseline="ideographic">thorough testing </tspan><tspan x="39.05" y="67" dominant-baseline="ideographic">strategies.</tspan></text></g></g></g><g id="g-root-tx_comprehe_8d77wwih6o5-fill" data-item-order="0" transform="translate(75, 147)"><g id="tx_comprehe_8d77wwih6o5-fill" stroke="none" fill="#e0cb15"><g><text style="font: 15px Roboto, sans-serif; white-space: pre;" font-size="15px" font-family="Roboto, sans-serif"><tspan x="16.23" y="31" dominant-baseline="ideographic">Comprehensive </tspan><tspan x="13.13" y="49" dominant-baseline="ideographic">skills in frontend </tspan><tspan x="22.96" y="67" dominant-baseline="ideographic">development.</tspan></text></g></g></g><g id="g-root-tx_abilityt_1q5q2towiikuh-fill" data-item-order="0" transform="translate(291, 159)"><g id="tx_abilityt_1q5q2towiikuh-fill" stroke="none" fill="#92bd39"><g><text style="font: 15px Roboto, sans-serif; white-space: pre;" font-size="15px" font-family="Roboto, sans-serif"><tspan x="16.29" y="28" dominant-baseline="ideographic">Ability to create </tspan><tspan x="35.68" y="46" dominant-baseline="ideographic">plans and </tspan><tspan x="31.4" y="64" dominant-baseline="ideographic">milestones </tspan><tspan x="32.32" y="82" dominant-baseline="ideographic">effectively.</tspan></text></g></g></g><g id="g-root-tx_experien_1cw4zpowiilfp-fill" data-item-order="0" transform="translate(711, 159)"><g id="tx_experien_1cw4zpowiilfp-fill" stroke="none" fill="#1eabda"><g><text style="font: 15px Roboto, sans-serif; white-space: pre;" font-size="15px" font-family="Roboto, sans-serif"><tspan x="13.49" y="31" dominant-baseline="ideographic">Experience handling </tspan><tspan x="18.91" y="49" dominant-baseline="ideographic">advanced features </tspan><tspan x="17.41" y="67" dominant-baseline="ideographic">like authentication.</tspan></text></g></g></g><g id="g-root-tx_cleancod_18n6pjgwih6h2-fill" data-item-order="0" transform="translate(81, 279)"><g id="tx_cleancod_18n6pjgwih6h2-fill" stroke="none" fill="#4e88e7"><g><text style="font: bold 20px Roboto, sans-serif; white-space: pre;" font-weight="bold" font-size="20px" font-family="Roboto, sans-serif"><tspan x="12.75" y="34" dominant-baseline="ideographic">Clean Code</tspan></text></g></g></g><g id="g-root-tx_emphasis_vcco98wih4w7-fill" data-item-order="0" transform="translate(63, 315)"><g id="tx_emphasis_vcco98wih4w7-fill" stroke="none" fill="#4e88e7"><g><text style="font: 15px Roboto, sans-serif; white-space: pre;" font-size="15px" font-family="Roboto, sans-serif"><tspan x="13.2" y="31" dominant-baseline="ideographic">Emphasis on writing </tspan><tspan x="19.98" y="49" dominant-baseline="ideographic">clean and efficient </tspan><tspan x="62.41" y="67" dominant-baseline="ideographic">code.</tspan></text></g></g></g><g id="g-root-tf_1luwde4wiil1n-stroke" data-item-order="-494208" transform="translate(-9, -9)"></g><g id="g-root-1.bubble-1_fr_90vu18wih4ox-stroke" data-item-order="-383606" transform="translate(39, 63)"><g id="1.bubble-1_fr_90vu18wih4ox-stroke" fill="none" stroke-linecap="round" stroke-linejoin="round" stroke-miterlimit="4" stroke="#e0cb15" stroke-width="2"><g><path d="M 202 58L 202 10.0001L 10.0001 10L 10 57.9999M 202 130L 202 58M 10 130L 10 58M 10 130L 10 178L 117.0683 178C 142.7191 178 170 178 195 172C 195 172 202 163 202 130"></path></g></g></g><g id="g-root-5.bubble-5_fr_1hfpccswih4hv-stroke" data-item-order="-383580" transform="translate(39, 255)"><g id="5.bubble-5_fr_1hfpccswih4hv-stroke" fill="none" stroke-linecap="round" stroke-linejoin="round" stroke-miterlimit="4" stroke="#4e88e7" stroke-width="2"><g><path d="M 202 58L 202 10.0001L 10.0001 10L 10 57.9999M 202 106L 202 58M 10 106L 10 58M 10 106L 10 154L 147.5 154C 157.7341 154 175.6366 153.3677 183 148L 194.5 138.5C 198 135 201.2149 130.9087 201.549 123.8146C 201.7854 118.7946 202 113.0268 202 108.6307L 202 106M 165.5 153C 178.5 151 181 145.5 184.5 136.5C 184.5 136.5 200 138 201.5 125"></path></g></g></g><g id="g-root-2.bubble-2_fr_qtesp8wih4hx-stroke" data-item-order="-383548" transform="translate(255, 75)"><g id="2.bubble-2_fr_qtesp8wih4hx-stroke" fill="none" stroke-linecap="round" stroke-linejoin="round" stroke-miterlimit="4" stroke="#92bd39" stroke-width="2"><g><path d="M 202 58L 202 10.0001L 10.0001 10L 10 57.9999M 202 142L 202 58M 10 142L 10 58M 202 142L 202 190L 64.5 190C 54.2659 190 36.3634 189.3677 29 184L 17.5 174.5C 14 171 10.7851 166.9087 10.451 159.8146C 10.2146 154.7946 10 149.0268 10 144.6307L 10 142M 46.5 189C 33.5 187 31 181.5 27.5 172.5C 27.5 172.5 12 174 10.5 161"></path></g></g></g><g id="g-root-3.bubble-3_fr_4mba30wih6vj-stroke" data-item-order="-383518" transform="translate(471, 63)"><g id="3.bubble-3_fr_4mba30wih6vj-stroke" fill="none" stroke-linecap="round" stroke-linejoin="round" stroke-miterlimit="4" stroke="#3cc583" stroke-width="2"><g><path d="M 10 106L 10 154L 202 154L 202 106.0001M 202 106L 202 58M 10 106L 10 58M 202 58L 202 10L 94.9317 10C 70.4032 10 45.9672 13.0082 22.171 18.9572L 19.0896 19.7276C 13.7476 21.0631 10 25.8629 10 31.3693L 10 58M 91 10.000116C 74.0247 12.559216 48.9444 14.935516 29.5 27.000016C 29.5 27.000016 26.5 17.000016 17 20.500016"></path></g></g></g><g id="g-root-4.bubble-4_fr_1lwrsngwih5vt-stroke" data-item-order="-383488" transform="translate(687, 75)"><g id="4.bubble-4_fr_1lwrsngwih5vt-stroke" fill="none" stroke-linecap="round" stroke-linejoin="round" stroke-miterlimit="4" stroke="#1eabda" stroke-width="2"><g><path d="M 10 130L 10 178L 202 178L 202 130.0001M 202 130L 202 58M 10 130L 10 58M 10 58L 10 10L 117.0683 10C 142.7191 10 170 10 195 16C 195 16 202 25 202 58"></path></g></g></g><g id="g-root-tx_frontend_djtpl8wih538-stroke" data-item-order="0" transform="translate(81, 87)"></g><g id="g-root-tx_planning_4g2j7wwiijgo-stroke" data-item-order="0" transform="translate(303, 99)"></g><g id="g-root-tx_teststra_zjfj64wiikui-stroke" data-item-order="0" transform="translate(501, 87)"></g><g id="g-root-tx_complexf_1unf07gwiij2k-stroke" data-item-order="0" transform="translate(735, 99)"></g><g id="g-root-tx_implemen_m8lhvwwiij9n-stroke" data-item-order="0" transform="translate(501, 123)"></g><g id="g-root-tx_comprehe_8d77wwih6o5-stroke" data-item-order="0" transform="translate(75, 147)"></g><g id="g-root-tx_abilityt_1q5q2towiikuh-stroke" data-item-order="0" transform="translate(291, 159)"></g><g id="g-root-tx_experien_1cw4zpowiilfp-stroke" data-item-order="0" transform="translate(711, 159)"></g><g id="g-root-tx_cleancod_18n6pjgwih6h2-stroke" data-item-order="0" transform="translate(81, 279)"></g><g id="g-root-tx_emphasis_vcco98wih4w7-stroke" data-item-order="0" transform="translate(63, 315)"></g></g></g></svg>