<?xml version="1.0" encoding="utf-8" standalone="yes"?>
<!DOCTYPE svg PUBLIC "-//W3C//DTD SVG 1.1//EN" "http://www.w3.org/Graphics/SVG/1.1/DTD/svg11.dtd">
<svg width="938" height="673" viewBox="0 0 938 673" style="fill:none;stroke:none;fill-rule:evenodd;clip-rule:evenodd;stroke-linecap:round;stroke-linejoin:round;stroke-miterlimit:1.5;" version="1.1" xmlns="http://www.w3.org/2000/svg" xmlns:xlink="http://www.w3.org/1999/xlink"><style id="fontImports">@import url("https://fonts.googleapis.com/css2?family=Shantell+Sans:wght@300..800&amp;display=block");</style><g id="items" style="isolation: isolate"><g id="blend" style="mix-blend-mode: normal"><g id="g-root-1.bubble-1_fr_zqxbd8xlx9n1-fill" data-item-order="-554102" transform="translate(39, 123)"><g id="1.bubble-1_fr_zqxbd8xlx9n1-fill" stroke="none" fill="#fff8b6"><g><path d="M 202 58L 10 58C 10.000001 31.4903 10 10 10 10L 202 10.000046L 202 58ZM 202 202.000031L 202 58L 10 58.000011L 10.000004 202.000031L 202 202.000031ZM 10 202.000031L 10 250.000031L 117.068 250.000031C 142.719 250.000031 170 250.000031 195 244.000031C 195 244.000031 202 235.000031 202 202.000031L 10 202.000031Z"></path></g></g></g><g id="g-root-5.bubble-5_fr_94mrpoxlx9n3-fill" data-item-order="-554074" transform="translate(39, 387)"><g id="5.bubble-5_fr_94mrpoxlx9n3-fill" stroke="none" fill="#dce9ff"><g><path d="M 202 58L 10 58C 10.000001 31.4903 10 10 10 10L 202 10.000046L 202 58ZM 202 214L 202 58L 10 58.000011L 10.000004 214L 202 214ZM 10 214L 10 262L 147.5 262C 157.734 262 175.637 261.3677 183 256L 194.5 246.5C 198 243 201.215 238.9087 201.549 231.8146C 201.785 226.7946 202 221.0268 202 216.6307L 202 214L 10 214Z"></path></g></g></g><g id="g-root-2.bubble-2_fr_1lz9s5oxlx9fl-fill" data-item-order="-554040" transform="translate(255, 135)"><g id="2.bubble-2_fr_1lz9s5oxlx9fl-fill" stroke="none" fill="#e9ffb9"><g><path d="M 202 58L 10 58C 10.000001 31.4903 10 10 10 10L 202 10.000046L 202 58ZM 202 237.999985L 202 57.999996L 10 58.000011L 10.000004 237.999985L 202 237.999985ZM 202 238L 202 286L 64.5 286C 54.2659 286 36.3634 285.3677 29 280L 17.5 270.5C 14 267 10.7851 262.9087 10.451 255.8146C 10.2146 250.7946 10 245.0268 10 240.6307L 10 238L 202 238Z"></path></g></g></g><g id="g-root-3.bubble-3_fr_zit58sxlyn7v-fill" data-item-order="-554008" transform="translate(471, 123)"><g id="3.bubble-3_fr_zit58sxlyn7v-fill" stroke="none" fill="#c8ffe5"><g><path d="M 10.000004 214L 202 214.000063C 202 240.5097 202 262 202 262L 10 262L 10.000004 214ZM 202 214L 202 58L 10 58.000011L 10.000004 214L 202 214ZM 202 58L 202 10.000009L 94.9317 10C 70.4032 9.999998 45.9672 13.0082 22.171 18.9572L 19.0896 19.7276C 13.7476 21.0631 10.000003 25.8629 10.000002 31.3693L 10 58L 202 58Z"></path></g></g></g><g id="g-root-4.bubble-4_fr_hrj4r0xlypl1-fill" data-item-order="-553976" transform="translate(687, 135)"><g id="4.bubble-4_fr_hrj4r0xlypl1-fill" stroke="none" fill="#d1f4ff"><g><path d="M 10.000004 202L 202 202.000063C 202 228.5097 202 250 202 250L 10 250L 10.000004 202ZM 202 202L 202 58L 10 58.000015L 10.000004 202L 202 202ZM 10 58L 10 10.000009L 117.068 10C 142.719 9.999998 170 9.999996 195 16C 195 16 202 25 202 58L 10 58Z"></path></g></g></g><g id="g-root-tx_professi_1um6570xlyolr-fill" data-item-order="0" transform="translate(243, 39)"><g id="tx_professi_1um6570xlyolr-fill" stroke="none" fill="#484848"><g><text style="font: bold 25px &quot;Shantell Sans&quot;, cursive; white-space: pre;" font-weight="bold" font-size="25px" font-family="'Shantell Sans', cursive"><tspan x="14.75" y="45" dominant-baseline="ideographic">Professional Profile Components</tspan></text></g></g></g><g id="g-root-4_18fp3nwxlyolc-fill" data-item-order="0" transform="translate(105, 147)"></g><g id="g-root-grow_18i7cngxmbcpb-fill" data-item-order="0" transform="translate(321, 159)"></g><g id="g-root-draw_13z9tqkxm5q0w-fill" data-item-order="0" transform="translate(537, 147)"></g><g id="g-root-imes_m7c72kxwdp1q-fill" data-item-order="0" transform="translate(753, 159)"></g><g id="g-root-tx_mvpdeliv_8zmz0sxmbawz-fill" data-item-order="0" transform="translate(81, 219)"><g id="tx_mvpdeliv_8zmz0sxmbawz-fill" stroke="none" fill="#e0cb15"><g><text style="font: bold 20px &quot;Shantell Sans&quot;, cursive; white-space: pre;" font-weight="bold" font-size="20px" font-family="'Shantell Sans', cursive"><tspan x="40.79" y="35" dominant-baseline="ideographic">MVP </tspan><tspan x="13.46" y="59" dominant-baseline="ideographic">Deliveries</tspan></text></g></g></g><g id="g-root-tx_continuo_1480gy4xm49ac-fill" data-item-order="0" transform="translate(279, 231)"><g id="tx_continuo_1480gy4xm49ac-fill" stroke="none" fill="#92bd39"><g><text style="font: bold 20px &quot;Shantell Sans&quot;, cursive; white-space: pre;" font-weight="bold" font-size="20px" font-family="'Shantell Sans', cursive"><tspan x="24.58" y="35" dominant-baseline="ideographic">Continuous </tspan><tspan x="11.81" y="59" dominant-baseline="ideographic">Improvement</tspan></text></g></g></g><g id="g-root-tx_cleardoc_8zbnwxwcbgk-fill" data-item-order="0" transform="translate(483, 219)"><g id="tx_cleardoc_8zbnwxwcbgk-fill" stroke="none" fill="#3cc583"><g><text style="font: bold 20px &quot;Shantell Sans&quot;, cursive; white-space: pre;" font-weight="bold" font-size="20px" font-family="'Shantell Sans', cursive"><tspan x="66.5" y="35" dominant-baseline="ideographic">Clear </tspan><tspan x="14.94" y="59" dominant-baseline="ideographic">Documentation</tspan></text></g></g></g><g id="g-root-tx_effectiv_1ut1gb0xvzoqu-fill" data-item-order="0" transform="translate(699, 231)"><g id="tx_effectiv_1ut1gb0xvzoqu-fill" stroke="none" fill="#1eabda"><g><text style="font: bold 20px &quot;Shantell Sans&quot;, cursive; white-space: pre;" font-weight="bold" font-size="20px" font-family="'Shantell Sans', cursive"><tspan x="48.94" y="35" dominant-baseline="ideographic">Effective </tspan><tspan x="14.75" y="59" dominant-baseline="ideographic">Communication</tspan></text></g></g></g><g id="g-root-tx_focusond_18ith3gxmbbil-fill" data-item-order="0" transform="translate(57, 279)"><g id="tx_focusond_18ith3gxmbbil-fill" stroke="none" fill="#e0cb15"><g><text style="font: 15px &quot;Shantell Sans&quot;, cursive; white-space: pre;" font-size="15px" font-family="'Shantell Sans', cursive"><tspan x="17.7" y="32" dominant-baseline="ideographic">Focus on delivering </tspan><tspan x="31.2" y="50" dominant-baseline="ideographic">minimum viable </tspan><tspan x="16.05" y="68" dominant-baseline="ideographic">products efficiently.</tspan></text></g></g></g><g id="g-root-tx_emphasiz_4g3bnwxm5oni-fill" data-item-order="0" transform="translate(285, 291)"><g id="tx_emphasiz_4g3bnwxm5oni-fill" stroke="none" fill="#92bd39"><g><text style="font: 15px &quot;Shantell Sans&quot;, cursive; white-space: pre;" font-size="15px" font-family="'Shantell Sans', cursive"><tspan x="28.13" y="32" dominant-baseline="ideographic">Emphasizing </tspan><tspan x="44.2" y="50" dominant-baseline="ideographic">ongoing </tspan><tspan x="11.8" y="68" dominant-baseline="ideographic">enhancements in </tspan><tspan x="22.27" y="86" dominant-baseline="ideographic">processes and </tspan><tspan x="53.7" y="104" dominant-baseline="ideographic">skills.</tspan></text></g></g></g><g id="g-root-tx_maintain_1d3mc3wxwcah9-fill" data-item-order="0" transform="translate(495, 279)"><g id="tx_maintain_1d3mc3wxwcah9-fill" stroke="none" fill="#3cc583"><g><text style="font: 15px &quot;Shantell Sans&quot;, cursive; white-space: pre;" font-size="15px" font-family="'Shantell Sans', cursive"><tspan x="15.48" y="29" dominant-baseline="ideographic">Maintaining well-</tspan><tspan x="26.88" y="47" dominant-baseline="ideographic">organized and </tspan><tspan x="16.66" y="65" dominant-baseline="ideographic">accessible project </tspan><tspan x="24.15" y="83" dominant-baseline="ideographic">documentation.</tspan></text></g></g></g><g id="g-root-tx_ensuring_146qwngxvzoqv-fill" data-item-order="0" transform="translate(711, 291)"><g id="tx_ensuring_146qwngxvzoqv-fill" stroke="none" fill="#1eabda"><g><text style="font: 15px &quot;Shantell Sans&quot;, cursive; white-space: pre;" font-size="15px" font-family="'Shantell Sans', cursive"><tspan x="11.97" y="32" dominant-baseline="ideographic">Ensuring clear and </tspan><tspan x="13.97" y="50" dominant-baseline="ideographic">concise exchanges </tspan><tspan x="26.81" y="68" dominant-baseline="ideographic">of information.</tspan></text></g></g></g><g id="g-root-glob_dikuksxmbbb8-fill" data-item-order="0" transform="translate(105, 411)"></g><g id="g-root-tx_remotewo_zlbe8cxmbc3o-fill" data-item-order="0" transform="translate(87, 483)"><g id="tx_remotewo_zlbe8cxmbc3o-fill" stroke="none" fill="#4e88e7"><g><text style="font: bold 20px &quot;Shantell Sans&quot;, cursive; white-space: pre;" font-weight="bold" font-size="20px" font-family="'Shantell Sans', cursive"><tspan x="15" y="35" dominant-baseline="ideographic">Remote </tspan><tspan x="26.78" y="59" dominant-baseline="ideographic">Work</tspan></text></g></g></g><g id="g-root-tx_optimizi_deucp8xmbbbh-fill" data-item-order="0" transform="translate(63, 543)"><g id="tx_optimizi_deucp8xmbbbh-fill" stroke="none" fill="#4e88e7"><g><text style="font: 15px &quot;Shantell Sans&quot;, cursive; white-space: pre;" font-size="15px" font-family="'Shantell Sans', cursive"><tspan x="41.06" y="29" dominant-baseline="ideographic">Optimizing </tspan><tspan x="14.42" y="47" dominant-baseline="ideographic">productivity while </tspan><tspan x="30.81" y="65" dominant-baseline="ideographic">working from </tspan><tspan x="16.22" y="83" dominant-baseline="ideographic">various locations.</tspan></text></g></g></g><g id="g-root-1.bubble-1_fr_zqxbd8xlx9n1-stroke" data-item-order="-554102" transform="translate(39, 123)"><g id="1.bubble-1_fr_zqxbd8xlx9n1-stroke" fill="none" stroke-linecap="round" stroke-linejoin="round" stroke-miterlimit="4" stroke="#ffffff" stroke-width="2"><g><path d="M 202 58L 202 10.0001L 10.0001 10L 10 57.9999M 202 202.000031L 202 58M 10 202.000031L 10 58M 10 202.000031L 10 250.000031L 117.0683 250.000031C 142.7191 250.000031 170 250.000031 195 244.000031C 195 244.000031 202 235.000031 202 202.000031"></path></g></g></g><g id="g-root-5.bubble-5_fr_94mrpoxlx9n3-stroke" data-item-order="-554074" transform="translate(39, 387)"><g id="5.bubble-5_fr_94mrpoxlx9n3-stroke" fill="none" stroke-linecap="round" stroke-linejoin="round" stroke-miterlimit="4" stroke="#ffffff" stroke-width="2"><g><path d="M 202 58L 202 10.0001L 10.0001 10L 10 57.9999M 202 214L 202 58M 10 214L 10 58M 10 214L 10 262L 147.5 262C 157.7341 262 175.6366 261.3677 183 256L 194.5 246.5C 198 243 201.2149 238.9087 201.549 231.8146C 201.7854 226.7946 202 221.0268 202 216.6307L 202 214M 165.5 261C 178.5 259 181 253.5 184.5 244.5C 184.5 244.5 200 246 201.5 233"></path></g></g></g><g id="g-root-2.bubble-2_fr_1lz9s5oxlx9fl-stroke" data-item-order="-554040" transform="translate(255, 135)"><g id="2.bubble-2_fr_1lz9s5oxlx9fl-stroke" fill="none" stroke-linecap="round" stroke-linejoin="round" stroke-miterlimit="4" stroke="#ffffff" stroke-width="2"><g><path d="M 202 58L 202 10.0001L 10.0001 10L 10 57.9999M 201.999985 237.999985L 201.999985 57.999996M 10 237.999985L 10 57.999996M 202 238L 202 286L 64.5 286C 54.2659 286 36.3634 285.3677 29 280L 17.5 270.5C 14 267 10.7851 262.9087 10.451 255.8146C 10.2146 250.7946 10 245.0268 10 240.6307L 10 238M 46.5 285C 33.5 283 31 277.5 27.5 268.5C 27.5 268.5 12 270 10.5 257"></path></g></g></g><g id="g-root-3.bubble-3_fr_zit58sxlyn7v-stroke" data-item-order="-554008" transform="translate(471, 123)"><g id="3.bubble-3_fr_zit58sxlyn7v-stroke" fill="none" stroke-linecap="round" stroke-linejoin="round" stroke-miterlimit="4" stroke="#ffffff" stroke-width="2"><g><path d="M 10 214L 10 262L 202 262L 202 214.0001M 202 214L 202 58M 10 214L 10 58M 202 58L 202 10L 94.9317 10C 70.4032 10 45.9672 13.0082 22.171 18.9572L 19.0896 19.7276C 13.7476 21.0631 10 25.8629 10 31.3693L 10 58M 91 10.000116C 74.0247 12.559216 48.9444 14.935516 29.5 27.000016C 29.5 27.000016 26.5 17.000016 17 20.500016"></path></g></g></g><g id="g-root-4.bubble-4_fr_hrj4r0xlypl1-stroke" data-item-order="-553976" transform="translate(687, 135)"><g id="4.bubble-4_fr_hrj4r0xlypl1-stroke" fill="none" stroke-linecap="round" stroke-linejoin="round" stroke-miterlimit="4" stroke="#ffffff" stroke-width="2"><g><path d="M 10 202L 10 250L 202 250L 202 202.0001M 202 202L 202 58M 10 202L 10 58M 10 58L 10 10L 117.0683 10C 142.7191 10 170 10 195 16C 195 16 202 25 202 58"></path></g></g></g><g id="g-root-tx_professi_1um6570xlyolr-stroke" data-item-order="0" transform="translate(243, 39)"></g><g id="g-root-4_18fp3nwxlyolc-stroke" data-item-order="0" transform="translate(105, 147)"><g id="4_18fp3nwxlyolc-stroke" fill="none" stroke-linecap="round" stroke-linejoin="round" stroke-miterlimit="4" stroke="#e0cb15" stroke-width="2"><g><path d="M 11.875 11.875L 11.875 68.125L 68.125 68.125M 37.5 20.625L 20 20.625C 19.25 20.625 18.75 20.125 18.75 19.375L 18.75 14.375C 18.75 13.625 19.25 13.125 20 13.125L 37.5 13.125C 38.25 13.125 38.75 13.625 38.75 14.375L 38.75 19.375C 38.75 20.125 38.25 20.625 37.5 20.625ZM 55.625 33.75L 29.375 33.75C 28.625 33.75 28.125 33.25 28.125 32.5L 28.125 27.5C 28.125 26.75 28.625 26.25 29.375 26.25L 55.625 26.25C 56.375 26.25 56.875 26.75 56.875 27.5L 56.875 32.5C 56.875 33.25 56.375 33.75 55.625 33.75ZM 63.125 46.875L 41.875 46.875C 41.125 46.875 40.625 46.375 40.625 45.625L 40.625 40.625C 40.625 39.875 41.125 39.375 41.875 39.375L 63.125 39.375C 63.875 39.375 64.375 39.875 64.375 40.625L 64.375 45.625C 64.375 46.375 63.875 46.875 63.125 46.875ZM 42.5 60L 21.25 60C 20.5 60 20 59.5 20 58.75L 20 53.75C 20 53 20.5 52.5 21.25 52.5L 42.5 52.5C 43.25 52.5 43.75 53 43.75 53.75L 43.75 58.75C 43.75 59.5 43.25 60 42.5 60ZM 66.875 60L 56.875 60C 56.125 60 55.625 59.5 55.625 58.75L 55.625 53.75C 55.625 53 56.125 52.5 56.875 52.5L 66.875 52.5C 67.625 52.5 68.125 53 68.125 53.75L 68.125 58.75C 68.125 59.5 67.625 60 66.875 60Z"></path></g></g></g><g id="g-root-grow_18i7cngxmbcpb-stroke" data-item-order="0" transform="translate(321, 159)"><g id="grow_18i7cngxmbcpb-stroke" fill="none" stroke-linecap="round" stroke-linejoin="round" stroke-miterlimit="4" stroke="#92bd39" stroke-width="2"><g><path d="M 43.727501 11.25C 43.07 28.619999 28.780001 41.25 11.25 41.25M 38.75 16.25L 43.75 11.25L 48.75 16.25M 66.872498 17.379999C 67.278084 17.193268 67.752472 17.237055 68.11702 17.494869C 68.481575 17.752684 68.680923 18.185375 68.639999 18.629999C 68.247498 23.424999 66.434998 34.445 58.112503 34.445C 54.098492 34.371048 50.883175 31.095943 50.883175 27.081251C 50.883175 23.066561 54.098492 19.791456 58.112503 19.717501C 61.159531 19.532551 64.138405 18.737675 66.872498 17.380001ZM 61.192497 25.432499C 57.031918 27.048794 53.796936 30.419178 52.352501 34.642498C 52.034332 35.561512 51.87291 36.527473 51.875 37.5L 51.875 68.75M 11.25 68.75L 68.75 68.75M 11.875 62.5C 11.875 62.5 16.875 62.5 16.875 68.75C 16.875 68.75 16.875 62.5 21.875 62.5M 34.375 63.75C 35.117844 61.595036 37.098232 60.109741 39.375004 60M 33.125 52.410004C 34.589478 53.874321 34.589825 56.24852 33.125767 57.713264C 31.661711 59.178013 29.287512 59.178791 27.822498 57.715C 26.537102 55.67939 25.574066 53.457321 24.967501 51.127502C 24.825928 50.682255 24.944479 50.195217 25.274849 49.864849C 25.605219 49.534477 26.092251 49.415928 26.537498 49.557499C 28.866772 50.164459 31.088655 51.126575 33.125004 52.410004ZM 33 57.842499C 33.899651 59.229107 34.377323 60.847111 34.375 62.5L 34.375 68.75M 33.092503 40.5825C 32.65535 40.650192 32.286537 40.943893 32.122692 41.35479C 31.958845 41.765686 32.024376 42.232582 32.295002 42.5825C 34.795002 45.77 40.517498 51.8325 45.924999 48.372501C 48.669189 46.624123 49.476124 42.981987 47.727211 40.238136C 45.978302 37.494286 42.336014 36.688057 39.592503 38.4375C 37.587009 39.570812 35.37862 40.299576 33.092503 40.5825ZM 40.400002 43.364998C 43.902199 42.66745 47.53376 43.550186 50.324997 45.7775C 50.934063 46.261261 51.457947 46.843452 51.875 47.499996"></path></g></g></g><g id="g-root-draw_13z9tqkxm5q0w-stroke" data-item-order="0" transform="translate(537, 147)"><g id="draw_13z9tqkxm5q0w-stroke" fill="none" stroke-linecap="round" stroke-linejoin="round" stroke-miterlimit="4" stroke="#3cc583" stroke-width="2"><g><path d="M 53.75 48.75C 52.369289 48.75 51.25 49.869286 51.25 51.25C 51.25 52.630711 50.130711 53.75 48.75 53.75L 31.25 53.75C 29.869287 53.75 28.75 52.630711 28.75 51.25C 28.75 49.869286 27.630713 48.75 26.25 48.75L 13.75 48.75C 12.369288 48.75 11.25 49.869286 11.25 51.25L 11.25 66.25C 11.25 67.630707 12.369288 68.75 13.75 68.75L 66.25 68.75C 67.630707 68.75 68.75 67.630707 68.75 66.25L 68.75 51.25C 68.75 49.869286 67.630707 48.75 66.25 48.75ZM 28.75 43.75L 28.75 13.75C 28.75 12.369288 29.869287 11.25 31.25 11.25L 58.75 11.25C 60.130711 11.25 61.25 12.369288 61.25 13.75L 61.25 48.75M 18.75 48.75L 18.75 18.75C 18.75 17.369287 19.869287 16.25 21.25 16.25L 23.75 16.25M 41.25 21.25L 53.75 21.25M 36.25 28.75L 53.75 28.75M 36.25 36.25L 53.75 36.25"></path></g></g></g><g id="g-root-imes_m7c72kxwdp1q-stroke" data-item-order="0" transform="translate(753, 159)"><g id="imes_m7c72kxwdp1q-stroke" fill="none" stroke-linecap="round" stroke-linejoin="round" stroke-miterlimit="4" stroke="#1eabda" stroke-width="2"><g><path d="M 40 16.25C 26.192501 16.25 15 25.1875 15 36.212498C 15.148668 41.891781 17.940138 47.176064 22.547501 50.5C 23.058971 52.311878 22.806448 54.254154 21.848671 55.875011C 20.890892 57.495865 19.311356 58.653999 17.477501 59.080002C 17.477499 59.080002 16.68 60.100002 18.665001 60.48C 26.645 61.935001 33.102501 55.529999 33.102501 55.529999L 33.102501 55.402496C 35.365616 55.916695 37.679203 56.175808 40 56.174999C 53.805 56.174999 65 47.235001 65 36.212498C 65 25.190001 53.805 16.25 40 16.25Z"></path></g></g></g><g id="g-root-tx_mvpdeliv_8zmz0sxmbawz-stroke" data-item-order="0" transform="translate(81, 219)"></g><g id="g-root-tx_continuo_1480gy4xm49ac-stroke" data-item-order="0" transform="translate(279, 231)"></g><g id="g-root-tx_cleardoc_8zbnwxwcbgk-stroke" data-item-order="0" transform="translate(483, 219)"></g><g id="g-root-tx_effectiv_1ut1gb0xvzoqu-stroke" data-item-order="0" transform="translate(699, 231)"></g><g id="g-root-tx_focusond_18ith3gxmbbil-stroke" data-item-order="0" transform="translate(57, 279)"></g><g id="g-root-tx_emphasiz_4g3bnwxm5oni-stroke" data-item-order="0" transform="translate(285, 291)"></g><g id="g-root-tx_maintain_1d3mc3wxwcah9-stroke" data-item-order="0" transform="translate(495, 279)"></g><g id="g-root-tx_ensuring_146qwngxvzoqv-stroke" data-item-order="0" transform="translate(711, 291)"></g><g id="g-root-glob_dikuksxmbbb8-stroke" data-item-order="0" transform="translate(105, 411)"><g id="glob_dikuksxmbbb8-stroke" fill="none" stroke-linecap="round" stroke-linejoin="round" stroke-miterlimit="4" stroke="#4e88e7" stroke-width="2"><g><path d="M 35.75 41.5975C 33.31831 42.970818 30.572689 43.691673 27.779999 43.689999M 27.7675 43.689999C 19.091305 43.692059 11.949797 36.866108 11.560025 28.198669C 11.170254 19.531235 17.670254 12.091828 26.311613 11.315125C 34.952972 10.53842 42.675411 16.69948 43.837498 25.297499M 13.105 20.5175L 16.1775 20.5175C 18.655762 20.704485 20.625513 22.674238 20.8125 25.1525L 20.8125 29.467501C 20.8125 30.522499 22.3575 31.3375 23.1675 32.0825L 26.5 35.145C 27.645164 36.160946 28.057814 37.770973 27.5425 39.212502M 31.450001 11.67C 31.450001 11.67 28.75 13.8025 27.75 14.565C 26.080069 15.849295 25.754557 18.238237 27.02 19.922501L 29.3475 23.0275C 30.074846 23.996641 31.215778 24.567106 32.427498 24.567499L 34.677502 24.567501C 35.698612 24.567425 36.677929 24.973001 37.400002 25.695L 39.174999 27.469999M 44.324997 39.4725C 44.325001 44.379551 48.302952 48.357502 53.209999 48.357502C 58.11705 48.357502 62.094997 44.379551 62.094997 39.4725C 62.094997 34.565453 58.11705 30.587502 53.209999 30.587502C 48.302952 30.587502 44.325001 34.565453 44.325001 39.4725M 50.965 68.75L 28.25 68.75C 27.189651 68.750031 26.240393 68.092621 25.8675 67.099998L 20.442501 52.659996C 20.295757 52.269382 20.349848 51.831646 20.587259 51.488495C 20.824669 51.145348 21.215231 50.940399 21.6325 50.939999L 42.522499 50.939999C 43.583073 50.939251 44.532703 51.596912 44.904999 52.589996ZM 57.987499 68.75L 68.457497 68.75M 53.189999 53.445C 61.621033 53.445 68.456123 60.278969 68.457497 68.709999M 31.967499 59.845001C 31.967499 61.474236 33.288261 62.794998 34.9175 62.794998C 36.546741 62.794998 37.8675 61.474236 37.8675 59.845001C 37.8675 58.215759 36.546741 56.894997 34.9175 56.894997C 33.288261 56.894997 31.967499 58.215759 31.967499 59.845001M 47.802502 32.43C 50.965 38.907501 58.09 39.4725 62.094997 39.4725"></path></g></g></g><g id="g-root-tx_remotewo_zlbe8cxmbc3o-stroke" data-item-order="0" transform="translate(87, 483)"></g><g id="g-root-tx_optimizi_deucp8xmbbbh-stroke" data-item-order="0" transform="translate(63, 543)"></g></g></g></svg>