<?xml version="1.0" encoding="utf-8" standalone="yes"?>
<!DOCTYPE svg PUBLIC "-//W3C//DTD SVG 1.1//EN" "http://www.w3.org/Graphics/SVG/1.1/DTD/svg11.dtd">
<svg width="794" height="578" viewBox="0 0 794 578" style="fill:none;stroke:none;fill-rule:evenodd;clip-rule:evenodd;stroke-linecap:round;stroke-linejoin:round;stroke-miterlimit:1.5;" version="1.1" xmlns="http://www.w3.org/2000/svg" xmlns:xlink="http://www.w3.org/1999/xlink"><style id="fontImports">@import url("https://fonts.googleapis.com/css2?family=Roboto:wght@400;700&amp;display=block");</style><g id="items" style="isolation: isolate"><g id="blend" style="mix-blend-mode: normal"><g id="g-root-0.cu_sy_qtemccxwcbnu-fill" data-item-order="-150739" transform="translate(254.00885009765625, 207.0001220703125)"><g id="0.cu_sy_qtemccxwcbnu-fill" stroke="none" fill="#f5f5f5"><g><path d="M 41.8313 44.4598C 26.76 59.2893 15.5897 78.0715 10.000011 99.1266L 40.8737 130L 10 160.873C 15.625 182.062 26.9016 200.948 42.1177 215.821L 82.5012 205L 93.3555 245.509C 103.7319 248.435 114.679 250 125.991 250C 136.943 250 147.552 248.533 157.632 245.785L 168.561 205L 209.666 216.015C 224.605 201.48 235.77 183.087 241.554 162.445L 209.109 130L 241.554 97.5554C 235.807 77.0458 224.748 58.7566 209.954 44.266L 168.56 55.3574L 157.529 14.1873C 147.479 11.4571 136.905 10 125.991 10C 114.716 10 103.8049 11.5549 93.4592 14.462L 82.5017 55.3574L 41.8313 44.4598Z"></path></g></g></g><g id="g-root-6.cu_sy_dikl24xwca2z-fill" data-item-order="-150735" transform="translate(244.56106567382812, 145.5616455078125)"><g id="6.cu_sy_dikl24xwca2z-fill" stroke="none" fill="#ffebf7"><g><path d="M 45.585069 104.372569C 33.719169 101.193169 23.066269 93.487169 16.438769 82.007969C 3.183969 59.049969 11.049969 29.693569 34.007969 16.438769C 56.966069 3.183969 86.322369 11.049969 99.577169 34.007969C 106.204669 45.486969 107.551869 58.565569 104.372469 70.431269L 91.949469 116.795969L 45.595669 104.375369C 45.592169 104.374469 45.588569 104.373469 45.585069 104.372569Z"></path></g></g></g><g id="g-root-5.cu_sy_742osxwcbnw-fill" data-item-order="-150731" transform="translate(169, 279.0001220703125)"><g id="5.cu_sy_742osxwcbnw-fill" stroke="none" fill="#e8f9ff"><g><path d="M 91.9414 91.9408C 83.2551 100.6273 71.255 106 58 106C 31.4903 106 10.000001 84.5097 10 58C 9.999999 31.4903 31.4903 10.000001 58 10C 71.2548 9.999999 83.2548 15.3726 91.9411 24.0589L 125.883 57.9997L 91.9492 91.9331C 91.9466 91.9356 91.944 91.9382 91.9414 91.9408Z"></path></g></g></g><g id="g-root-4.cu_sy_1hhkl98xwcao5-fill" data-item-order="-150727" transform="translate(244.56106567382812, 402.0001220703125)"><g id="4.cu_sy_1hhkl98xwcao5-fill" stroke="none" fill="#faf0ff"><g><path d="M 104.372369 56.3644C 107.551869 68.2302 106.204669 81.309 99.577169 92.7881C 86.322369 115.746 56.966069 123.612 34.007969 110.357C 11.049969 97.1025 3.183969 67.7462 16.438769 44.7881C 23.066169 33.3091 33.718969 25.6031 45.584669 22.4237L 91.948969 10L 104.369469 56.3538C 104.370369 56.3573 104.371369 56.3609 104.372369 56.3644Z"></path></g></g></g><g id="g-root-3.cu_sy_14642vwxwcc92-fill" data-item-order="-150723" transform="translate(398.50244140625, 402.0001220703125)"><g id="3.cu_sy_14642vwxwcc92-fill" stroke="none" fill="#fff2e5"><g><path d="M 11.6437 56.3644C 8.4641 68.2302 9.8113 81.309 16.4388 92.7881C 29.6936 115.746 59.05 123.612 82.008 110.357C 104.9661 97.1025 112.832 67.7462 99.5772 44.7881C 92.9498 33.3091 82.297 25.6031 70.4313 22.4237L 24.067 10L 11.6465 56.3538C 11.6456 56.3573 11.6446 56.3609 11.6437 56.3644Z"></path></g></g></g><g id="g-root-2.cu_sy_qva1loxwcao7-fill" data-item-order="-150719" transform="translate(453.11767578125, 279.0001220703125)"><g id="2.cu_sy_qva1loxwcao7-fill" stroke="none" fill="#f4ffdc"><g><path d="M 43.9411 91.9408C 52.6274 100.6273 64.6276 106 77.8825 106C 104.3922 106 125.883 84.5097 125.883 58C 125.883 31.4903 104.3922 10.000001 77.8825 10C 64.6277 9.999999 52.6277 15.3726 43.9414 24.0589L 10 57.9997L 43.9333 91.9331C 43.9359 91.9356 43.9385 91.9382 43.9411 91.9408Z"></path></g></g></g><g id="g-root-1.cu_sy_djtj8cxwcc94-fill" data-item-order="-150715" transform="translate(398.50250244140625, 145.5616455078125)"><g id="1.cu_sy_djtj8cxwcc94-fill" stroke="none" fill="#e3fff2"><g><path d="M 70.430869 104.372569C 82.296769 101.193169 92.949669 93.487169 99.577169 82.007969C 112.831969 59.049969 104.966069 29.693569 82.007969 16.438769C 59.049969 3.183969 29.693569 11.049969 16.438769 34.007969C 9.811369 45.486969 8.464169 58.565569 11.643569 70.431269L 24.066469 116.795969L 70.420269 104.375369C 70.423769 104.374469 70.427369 104.373469 70.430869 104.372569Z"></path></g></g></g><g id="g-root-modu_18nt09oxwcah6-fill" data-item-order="0" transform="translate(267, 171.0001220703125)"></g><g id="g-root-bust_vbq3z0xvy9l3-fill" data-item-order="0" transform="translate(423, 171.0001220703125)"></g><g id="g-root-tx_testingi_924vbwxw143w-fill" data-item-order="0" transform="translate(513, 147.0001220703125)"><g id="tx_testingi_924vbwxw143w-fill" stroke="none" fill="#484848"><g><text style="font: 15px Roboto, sans-serif; white-space: pre;" font-size="15px" font-family="Roboto, sans-serif"><tspan x="12" y="28" dominant-baseline="ideographic">Testing individual </tspan><tspan x="12" y="46" dominant-baseline="ideographic">components for </tspan><tspan x="12" y="64" dominant-baseline="ideographic">functionality and </tspan><tspan x="12" y="82" dominant-baseline="ideographic">reliability</tspan></text></g></g></g><g id="g-root-tx_mobilefi_mgpr4sxw13pc-fill" data-item-order="0" transform="translate(27, 255.0001220703125)"><g id="tx_mobilefi_mgpr4sxw13pc-fill" stroke="none" fill="#1eabda"><g><text style="font: bold 20px Roboto, sans-serif; white-space: pre;" font-weight="bold" font-size="20px" font-family="Roboto, sans-serif"><tspan x="18.05" y="34" dominant-baseline="ideographic">Mobile-First </tspan><tspan x="65.98" y="58" dominant-baseline="ideographic">Design</tspan></text></g></g></g><g id="g-root-tx_tracking_1czvxcsxw12iy-fill" data-item-order="0" transform="translate(513, 483.0001220703125)"><g id="tx_tracking_1czvxcsxw12iy-fill" stroke="none" fill="#484848"><g><text style="font: 15px Roboto, sans-serif; white-space: pre;" font-size="15px" font-family="Roboto, sans-serif"><tspan x="12" y="28" dominant-baseline="ideographic">Tracking application </tspan><tspan x="12" y="46" dominant-baseline="ideographic">speed and efficiency</tspan></text></g></g></g><g id="g-root-chec_1uqjafwxw9ibw-fill" data-item-order="0" transform="translate(321, 279.0001220703125)"></g><g id="g-root-tx_ensuring_1cy0i3gxw13im-fill" data-item-order="0" transform="translate(81, 147.0001220703125)"><g id="tx_ensuring_1cy0i3gxw13im-fill" stroke="none" fill="#484848"><g><text style="font: 15px Roboto, sans-serif; white-space: pre;" font-size="15px" font-family="Roboto, sans-serif"><tspan x="20.14" y="31" dominant-baseline="ideographic">Ensuring consistent </tspan><tspan x="17.47" y="49" dominant-baseline="ideographic">performance across </tspan><tspan x="90.28" y="67" dominant-baseline="ideographic">browsers</tspan></text></g></g></g><g id="g-root-tx_e2etesti_1qcldwcxw1345-fill" data-item-order="0" transform="translate(591, 279.0001220703125)"><g id="tx_e2etesti_1qcldwcxw1345-fill" stroke="none" fill="#92bd39"><g><text style="font: bold 20px Roboto, sans-serif; white-space: pre;" font-weight="bold" font-size="20px" font-family="Roboto, sans-serif"><tspan x="12" y="34" dominant-baseline="ideographic">E2E Testing</tspan></text></g></g></g><g id="g-root-tx_prioriti_hwixekxw1154-fill" data-item-order="0" transform="translate(15, 315.0001220703125)"><g id="tx_prioriti_hwixekxw1154-fill" stroke="none" fill="#484848"><g><text style="font: 15px Roboto, sans-serif; white-space: pre;" font-size="15px" font-family="Roboto, sans-serif"><tspan x="19.06" y="31" dominant-baseline="ideographic">Prioritizing mobile </tspan><tspan x="72.91" y="49" dominant-baseline="ideographic">design for </tspan><tspan x="35.86" y="67" dominant-baseline="ideographic">responsiveness</tspan></text></g></g></g><g id="g-root-smar_vah2n0xwf5dw-fill" data-item-order="0" transform="translate(189, 303.0001220703125)"></g><g id="g-root-appr_9m270xvww7d-fill" data-item-order="0" transform="translate(496, 303.0001220703125)"></g><g id="g-root-tx_verifyin_v98dy4xw11qb-fill" data-item-order="0" transform="translate(591, 315.0001220703125)"><g id="tx_verifyin_v98dy4xw11qb-fill" stroke="none" fill="#484848"><g><text style="font: 15px Roboto, sans-serif; white-space: pre;" font-size="15px" font-family="Roboto, sans-serif"><tspan x="12" y="31" dominant-baseline="ideographic">Verifying complete </tspan><tspan x="12" y="49" dominant-baseline="ideographic">workflows from start to </tspan><tspan x="12" y="67" dominant-baseline="ideographic">finish</tspan></text></g></g></g><g id="g-root-tx_unittest_hss2vwxw2hak-fill" data-item-order="0" transform="translate(513, 111.0001220703125)"><g id="tx_unittest_hss2vwxw2hak-fill" stroke="none" fill="#3cc583"><g><text style="font: bold 20px Roboto, sans-serif; white-space: pre;" font-weight="bold" font-size="20px" font-family="Roboto, sans-serif"><tspan x="12" y="34" dominant-baseline="ideographic">Unit Testing</tspan></text></g></g></g><g id="g-root-tx_crossbro_1hapmscxw2ghu-fill" data-item-order="0" transform="translate(81, 87.0001220703125)"><g id="tx_crossbro_1hapmscxw2ghu-fill" stroke="none" fill="#de58a9"><g><text style="font: bold 20px Roboto, sans-serif; white-space: pre;" font-weight="bold" font-size="20px" font-family="Roboto, sans-serif"><tspan x="18" y="34" dominant-baseline="ideographic">Cross-Browser </tspan><tspan x="32.31" y="58" dominant-baseline="ideographic">Compatibility</tspan></text></g></g></g><g id="g-root-tx_accessib_1d1rcm4xw11ja-fill" data-item-order="0" transform="translate(105, 447.0001220703125)"><g id="tx_accessib_1d1rcm4xw11ja-fill" stroke="none" fill="#ba5de5"><g><text style="font: bold 20px Roboto, sans-serif; white-space: pre;" font-weight="bold" font-size="20px" font-family="Roboto, sans-serif"><tspan x="13.11" y="34" dominant-baseline="ideographic">Accessibility</tspan></text></g></g></g><g id="g-root-race_1ltn8v0xwgidj-fill" data-item-order="0" transform="translate(267, 435.0001220703125)"></g><g id="g-root-limi_dg2rvgxvwv7l-fill" data-item-order="0" transform="translate(423, 435.0001220703125)"></g><g id="g-root-tx_performa_13z94f0xw2i2r-fill" data-item-order="0" transform="translate(513, 423.0001220703125)"><g id="tx_performa_13z94f0xw2i2r-fill" stroke="none" fill="#de8431"><g><text style="font: bold 20px Roboto, sans-serif; white-space: pre;" font-weight="bold" font-size="20px" font-family="Roboto, sans-serif"><tspan x="12" y="34" dominant-baseline="ideographic">Performance </tspan><tspan x="12" y="58" dominant-baseline="ideographic">Monitoring</tspan></text></g></g></g><g id="g-root-tx_ensuring_58wwsxw13i9-fill" data-item-order="0" transform="translate(57, 483.0001220703125)"><g id="tx_ensuring_58wwsxw13i9-fill" stroke="none" fill="#484848"><g><text style="font: 15px Roboto, sans-serif; white-space: pre;" font-size="15px" font-family="Roboto, sans-serif"><tspan x="16.73" y="28" dominant-baseline="ideographic">Ensuring usability for all </tspan><tspan x="139.2" y="46" dominant-baseline="ideographic">users</tspan></text></g></g></g><g id="g-root-tx_ensuring_8zhy4xwcao9-fill" data-item-order="0" transform="translate(196, 39.0001220703125)"><g id="tx_ensuring_8zhy4xwcao9-fill" stroke="none" fill="#484848"><g><text style="font: bold 20px Roboto, sans-serif; white-space: pre;" font-weight="bold" font-size="20px" font-family="Roboto, sans-serif"><tspan x="16.72" y="34" dominant-baseline="ideographic">Ensuring High-Quality Web Applications</tspan></text></g></g></g><g id="g-root-0.cu_sy_qtemccxwcbnu-stroke" data-item-order="-150739" transform="translate(254.00885009765625, 207.0001220703125)"><g id="0.cu_sy_qtemccxwcbnu-stroke" fill="none" stroke-linecap="round" stroke-linejoin="round" stroke-miterlimit="4" stroke="#969696" stroke-width="2"><g><path d="M 41.8313 44.4598C 26.76 59.2893 15.5897 78.0715 10 99.1266M 10 160.8734C 15.625 182.0616 26.9016 200.9481 42.1177 215.8211M 93.3555 245.5088C 103.7319 248.4347 114.6787 250 125.9911 250C 136.9428 250 147.5518 248.5329 157.6324 245.7846M 209.6662 216.0146C 224.6048 201.4798 235.7702 183.0868 241.5537 162.4445M 241.5536 97.5554C 235.8074 77.0458 224.748 58.7566 209.9536 44.266M 157.5289 14.1873C 147.4793 11.4571 136.9054 10 125.9911 10C 114.7164 10 103.8049 11.5549 93.4592 14.462"></path></g></g></g><g id="g-root-6.cu_sy_dikl24xwca2z-stroke" data-item-order="-150735" transform="translate(244.56106567382812, 145.5616455078125)"><g id="6.cu_sy_dikl24xwca2z-stroke" fill="none" stroke-linecap="round" stroke-linejoin="round" stroke-miterlimit="4" stroke="#de58a9" stroke-width="2"><g><path d="M 45.585069 104.372569C 33.719169 101.193169 23.066269 93.487169 16.438769 82.007969C 3.183969 59.049969 11.049969 29.693569 34.007969 16.438769C 56.966069 3.183969 86.322369 11.049969 99.577169 34.007969C 106.204669 45.486969 107.551869 58.565569 104.372469 70.431269L 91.949469 116.795869L 45.595669 104.375369C 45.592169 104.374469 45.588569 104.373469 45.585069 104.372569Z"></path></g></g></g><g id="g-root-5.cu_sy_742osxwcbnw-stroke" data-item-order="-150731" transform="translate(169, 279.0001220703125)"><g id="5.cu_sy_742osxwcbnw-stroke" fill="none" stroke-linecap="round" stroke-linejoin="round" stroke-miterlimit="4" stroke="#1eabda" stroke-width="2"><g><path d="M 91.9414 91.9408C 83.2551 100.6273 71.255 106 58 106C 31.4903 106 10 84.5097 10 58C 10 31.4903 31.4903 10 58 10C 71.2548 9.999999 83.2548 15.3726 91.9411 24.0589L 125.8825 57.9997L 91.9492 91.9331C 91.9466 91.9356 91.944 91.9382 91.9414 91.9408Z"></path></g></g></g><g id="g-root-4.cu_sy_1hhkl98xwcao5-stroke" data-item-order="-150727" transform="translate(244.56106567382812, 402.0001220703125)"><g id="4.cu_sy_1hhkl98xwcao5-stroke" fill="none" stroke-linecap="round" stroke-linejoin="round" stroke-miterlimit="4" stroke="#ba5de5" stroke-width="2"><g><path d="M 104.372369 56.3644C 107.551869 68.2302 106.204669 81.309 99.577169 92.7881C 86.322369 115.7462 56.966069 123.6122 34.007969 110.3574C 11.049969 97.1025 3.183969 67.7462 16.438769 44.7881C 23.066169 33.3091 33.718969 25.6031 45.584669 22.4237L 91.948969 10L 104.369469 56.3538C 104.370369 56.3573 104.371369 56.3609 104.372369 56.3644Z"></path></g></g></g><g id="g-root-3.cu_sy_14642vwxwcc92-stroke" data-item-order="-150723" transform="translate(398.50244140625, 402.0001220703125)"><g id="3.cu_sy_14642vwxwcc92-stroke" fill="none" stroke-linecap="round" stroke-linejoin="round" stroke-miterlimit="4" stroke="#de8431" stroke-width="2"><g><path d="M 11.6437 56.3644C 8.4641 68.2302 9.8113 81.309 16.4388 92.7881C 29.6936 115.7462 59.05 123.6122 82.008 110.3574C 104.9661 97.1025 112.8321 67.7462 99.5772 44.7881C 92.9498 33.3091 82.297 25.6031 70.4313 22.4237L 24.067 10L 11.6465 56.3538C 11.6456 56.3573 11.6446 56.3609 11.6437 56.3644Z"></path></g></g></g><g id="g-root-2.cu_sy_qva1loxwcao7-stroke" data-item-order="-150719" transform="translate(453.11767578125, 279.0001220703125)"><g id="2.cu_sy_qva1loxwcao7-stroke" fill="none" stroke-linecap="round" stroke-linejoin="round" stroke-miterlimit="4" stroke="#92bd39" stroke-width="2"><g><path d="M 43.9411 91.9408C 52.6274 100.6273 64.6276 106 77.8825 106C 104.3922 106 125.8825 84.5097 125.8825 58C 125.8825 31.4903 104.3922 10 77.8825 10C 64.6277 9.999999 52.6277 15.3726 43.9414 24.0589L 10 57.9997L 43.9333 91.9331C 43.9359 91.9356 43.9385 91.9382 43.9411 91.9408Z"></path></g></g></g><g id="g-root-1.cu_sy_djtj8cxwcc94-stroke" data-item-order="-150715" transform="translate(398.50250244140625, 145.5616455078125)"><g id="1.cu_sy_djtj8cxwcc94-stroke" fill="none" stroke-linecap="round" stroke-linejoin="round" stroke-miterlimit="4" stroke="#3cc583" stroke-width="2"><g><path d="M 70.430869 104.372569C 82.296769 101.193169 92.949669 93.487169 99.577169 82.007969C 112.832069 59.049969 104.966069 29.693569 82.007969 16.438769C 59.049969 3.183969 29.693569 11.049969 16.438769 34.007969C 9.811369 45.486969 8.464169 58.565569 11.643569 70.431269L 24.066469 116.795869L 70.420269 104.375369C 70.423769 104.374469 70.427369 104.373469 70.430869 104.372569Z"></path></g></g></g><g id="g-root-modu_18nt09oxwcah6-stroke" data-item-order="0" transform="translate(267, 171.0001220703125)"><g id="modu_18nt09oxwcah6-stroke" fill="none" stroke-linecap="round" stroke-linejoin="round" stroke-miterlimit="4" stroke="#de58a9" stroke-width="2"><g><path d="M 50.094002 49.007999L 56.094002 49.007999C 56.094002 49.007999 57.094002 49.007999 57.094002 50.007999L 57.094002 56.007999C 57.094002 56.007999 57.094002 57.007999 56.094002 57.007999L 50.094002 57.007999C 50.094002 57.007999 49.094002 57.007999 49.094002 56.007999L 49.094002 50.007999C 49.094002 50.007999 49.094002 49.007999 50.094002 49.007999M 38.094002 49.007999L 44.094002 49.007999C 44.094002 49.007999 45.094002 49.007999 45.094002 50.007999L 45.094002 56.007999C 45.094002 56.007999 45.094002 57.007999 44.094002 57.007999L 38.094002 57.007999C 38.094002 57.007999 37.094002 57.007999 37.094002 56.007999L 37.094002 50.007999C 37.094002 50.007999 37.094002 49.007999 38.094002 49.007999M 44.094002 37.007999L 50.094002 37.007999C 50.094002 37.007999 51.094002 37.007999 51.094002 38.007999L 51.094002 44.007999C 51.094002 44.007999 51.094002 45.007999 50.094002 45.007999L 44.094002 45.007999C 44.094002 45.007999 43.094002 45.007999 43.094002 44.007999L 43.094002 38.007999C 43.094002 38.007999 43.094002 37.007999 44.094002 37.007999M 11.094 19.007999L 51.094002 19.007999M 17.094 14.507999L 17.094 14.507999M 17.094 14.507999C 16.817858 14.507999 16.594 14.731857 16.594 15.007999C 16.594 15.284142 16.817858 15.507999 17.094 15.507999C 17.370142 15.507999 17.594 15.284142 17.594 15.007999C 17.594 14.731857 17.370142 14.507999 17.094 14.507999M 21.094 14.507999L 21.094 14.507999M 21.094 14.507999C 20.817858 14.507999 20.594 14.731857 20.594 15.007999C 20.594 15.284142 20.817858 15.507999 21.094 15.507999C 21.370142 15.507999 21.594 15.284142 21.594 15.007999C 21.594 14.731857 21.370142 14.507999 21.094 14.507999M 25.094 14.507999L 25.094 14.507999M 25.094 14.507999C 24.817858 14.507999 24.594 14.731857 24.594 15.007999C 24.594 15.284142 24.817858 15.507999 25.094 15.507999C 25.370142 15.507999 25.594 15.284142 25.594 15.007999C 25.594 14.731857 25.370142 14.507999 25.094 14.507999M 37.094002 43L 15.094 43C 12.884861 43 11.094 41.209137 11.094 39L 11.094 15C 11.094 12.790861 12.884861 11 15.094 11L 47.094002 11C 49.303139 11 51.094002 12.790861 51.094002 15L 51.094002 33"></path></g></g></g><g id="g-root-bust_vbq3z0xvy9l3-stroke" data-item-order="0" transform="translate(423, 171.0001220703125)"><g id="bust_vbq3z0xvy9l3-stroke" fill="none" stroke-linecap="round" stroke-linejoin="round" stroke-miterlimit="4" stroke="#3cc583" stroke-width="2"><g><path d="M 49.526001 49.740002L 56.844002 57.057999M 33.295998 43.085999C 33.295998 48.320553 37.539444 52.563999 42.773998 52.563999C 48.008553 52.563999 52.251999 48.320553 52.251999 43.085999C 52.251999 37.851444 48.008553 33.608002 42.773998 33.608002C 37.539444 33.608002 33.295998 37.851444 33.295998 43.085999M 11.584 54.194L 12.654 54.194M 17.119999 54.194L 18.189999 54.194M 24.612 54.194L 25.684 54.194M 40.669998 46.700001L 41.739998 45.630001M 42.810001 40.278L 42.810001 38.672001M 32.167999 29.837999L 33.237999 30.908001M 31.035999 54.194L 32.106003 54.194M 21.327696 22.727135L 22.973843 21.080988C 23.954964 20.1061 25.539854 20.108631 26.517862 21.086647L 28.113092 22.681881C 29.545677 24.114456 29.548206 26.436346 28.11875 27.872042L 28.11875 27.872042C 26.683964 29.306828 24.357716 29.306829 22.92293 27.872042L 21.327696 26.27681C 20.347481 25.296593 20.347481 23.70735 21.327696 22.727135ZM 16.527557 17.468136L 17.714081 16.28161C 17.714081 16.28161 19.719437 14.276257 21.724794 16.28161L 22.744442 17.301258C 22.744442 17.301258 24.749796 19.306612 22.744442 21.311968L 21.557915 22.498493C 21.557915 22.498493 19.552559 24.503849 17.547207 22.498493L 16.527557 21.478846C 16.527557 21.478846 14.522202 19.47349 16.527557 17.468136M 11.164 15.948C 10.964 17.468 14.04 20.397999 15.896 18.222M 16.162001 10.95C 17.68 10.75 20.610001 13.828 18.434 15.682M 22.66 17.216L 24.493999 13.426001M 26.524 21.08L 28.864 17.386M 17.462 22.411999L 13.674 24.248001M 21.327999 26.278L 17.632 28.618"></path></g></g></g><g id="g-root-tx_testingi_924vbwxw143w-stroke" data-item-order="0" transform="translate(513, 147.0001220703125)"></g><g id="g-root-tx_mobilefi_mgpr4sxw13pc-stroke" data-item-order="0" transform="translate(27, 255.0001220703125)"></g><g id="g-root-tx_tracking_1czvxcsxw12iy-stroke" data-item-order="0" transform="translate(513, 483.0001220703125)"></g><g id="g-root-chec_1uqjafwxw9ibw-stroke" data-item-order="0" transform="translate(321, 279.0001220703125)"><g id="chec_1uqjafwxw9ibw-stroke" fill="none" stroke-linecap="round" stroke-linejoin="round" stroke-miterlimit="4" stroke="#969696" stroke-width="2"><g><path d="M 12 28.016001L 92 28.016001M 24 19.015999L 24 19.015999M 24 19.015999C 23.447716 19.015999 23 19.463715 23 20.015999C 23 20.568285 23.447716 21.015999 24 21.015999C 24.552284 21.015999 25 20.568285 25 20.015999C 25 19.463715 24.552284 19.015999 24 19.015999M 32 19.015999L 32 19.015999M 32 19.015999C 31.447716 19.015999 31 19.463715 31 20.015999C 31 20.568285 31.447716 21.015999 32 21.015999C 32.552284 21.015999 33 20.568285 33 20.015999C 33 19.463715 32.552284 19.015999 32 19.015999M 40 19.015999L 40 19.015999M 40 19.015999C 39.447716 19.015999 39 19.463715 39 20.015999C 39 20.568285 39.447716 21.015999 40 21.015999C 40.552284 21.015999 41 20.568285 41 20.015999C 41 19.463715 40.552284 19.015999 40 19.015999M 44 76L 20 76C 15.581722 76 12 72.418274 12 68L 12 20C 12 15.581722 15.581722 12 20 12L 84 12C 88.418282 12 92 15.581722 92 20L 92 44M 56.004002 80.019997C 56.004002 93.274834 66.749168 104.020004 80.004005 104.020004C 93.258835 104.020004 104.004005 93.274834 104.004005 80.020004C 104.004005 66.765167 93.258835 56.02 80.004005 56.02C 66.749168 56.02 56.004002 66.765167 56.004002 80.020004ZM 90.699997 73.040001L 79.080002 88.536003C 78.557983 89.23111 77.760124 89.665611 76.89299 89.727005C 76.025864 89.788391 75.174744 89.470634 74.560005 88.856003L 68.559998 82.856003"></path></g></g></g><g id="g-root-tx_ensuring_1cy0i3gxw13im-stroke" data-item-order="0" transform="translate(81, 147.0001220703125)"></g><g id="g-root-tx_e2etesti_1qcldwcxw1345-stroke" data-item-order="0" transform="translate(591, 279.0001220703125)"></g><g id="g-root-tx_prioriti_hwixekxw1154-stroke" data-item-order="0" transform="translate(15, 315.0001220703125)"></g><g id="g-root-smar_vah2n0xwf5dw-stroke" data-item-order="0" transform="translate(189, 303.0001220703125)"><g id="smar_vah2n0xwf5dw-stroke" fill="none" stroke-linecap="round" stroke-linejoin="round" stroke-miterlimit="4" stroke="#1eabda" stroke-width="2"><g><path d="M 38.599998 39.622002L 38.599998 52.911999C 38.599998 55.169739 36.769737 57 34.512001 57L 15.087999 57C 12.830259 57 11 55.169739 11 52.911999L 11 15.087999C 11 12.830259 12.830259 11 15.087999 11L 19.737999 11M 11 47.799999L 38.599998 47.799999M 27.356001 11L 54.956001 11C 54.956001 11 57 11 57 13.044L 57 33.489998C 57 33.489998 57 35.534 54.956001 35.534L 27.356001 35.534C 27.356001 35.534 25.312 35.534 25.312 33.489998L 25.312 13.044C 25.312 13.044 25.312 11 27.356001 11M 25.312 16.92L 57 16.92M 25.312 29.403999L 57 29.403999M 25.312 23.265999L 57 23.265999M 40.271999 17.487999L 40.271999 35.534M 48.458 17.487999L 48.458 35.534"></path></g></g></g><g id="g-root-appr_9m270xvww7d-stroke" data-item-order="0" transform="translate(496, 303.0001220703125)"><g id="appr_9m270xvww7d-stroke" fill="none" stroke-linecap="round" stroke-linejoin="round" stroke-miterlimit="4" stroke="#92bd39" stroke-width="2"><g><path d="M 28.275999 57C 29.933384 54.650242 30.879063 51.872917 31 49M 39.723999 57C 38.066612 54.650242 37.120934 51.872917 37 49M 25 57L 43 57M 11 43L 57 43M 13 11L 55 11C 55 11 57 11 57 13L 57 47C 57 47 57 49 55 49L 13 49C 13 49 11 49 11 47L 11 13C 11 13 11 11 13 11M 44 21L 34 31L 30 27M 43 28C 42.999222 32.02063 40.331741 35.553024 36.464836 36.654156C 32.597931 37.755287 28.469738 36.158016 26.351011 32.740936C 24.232285 29.323853 24.637045 24.91597 27.342646 21.941887C 30.048248 18.967804 34.398296 18.149055 38 19.936001"></path></g></g></g><g id="g-root-tx_verifyin_v98dy4xw11qb-stroke" data-item-order="0" transform="translate(591, 315.0001220703125)"></g><g id="g-root-tx_unittest_hss2vwxw2hak-stroke" data-item-order="0" transform="translate(513, 111.0001220703125)"></g><g id="g-root-tx_crossbro_1hapmscxw2ghu-stroke" data-item-order="0" transform="translate(81, 87.0001220703125)"></g><g id="g-root-tx_accessib_1d1rcm4xw11ja-stroke" data-item-order="0" transform="translate(105, 447.0001220703125)"></g><g id="g-root-race_1ltn8v0xwgidj-stroke" data-item-order="0" transform="translate(267, 435.0001220703125)"><g id="race_1ltn8v0xwgidj-stroke" fill="none" stroke-linecap="round" stroke-linejoin="round" stroke-miterlimit="4" stroke="#ba5de5" stroke-width="2"><g><path d="M 35 16.5C 35 19.261425 37.238579 21.5 40 21.5C 42.761425 21.5 45 19.261425 45 16.5C 45 13.738577 42.761425 11.5 40 11.5C 37.238579 11.5 35 13.738577 35 16.5M 40.139999 34.5L 39.059998 29.08C 38.743927 27.524544 39.702515 25.994318 41.240002 25.6C 49.240002 23.48 48.700001 23.6 48.939999 23.6C 51.251499 23.254272 53.583469 24.081615 55.160236 25.806831C 56.737 27.532045 57.351749 29.928848 56.799999 32.199997L 54.939999 42C 54.636086 43.629078 53.069172 44.703407 51.44006 44.399673C 49.810947 44.09594 48.73645 42.529148 49.040001 40.900002L 50.919998 30.9C 51.066708 30.514997 50.998192 30.081068 50.739998 29.759998C 50.544483 29.567259 50.273106 29.47191 50 29.5L 46.439999 30.440001C 45.93232 30.577192 45.617645 31.084164 45.720001 31.6L 45.900002 32.5M 57 46.5C 56.998928 51.762253 52.919785 56.123314 47.669331 56.475533C 42.41888 56.827755 37.7938 53.050602 37.089874 47.835644C 36.385952 42.620686 39.844067 37.752449 45 36.700001M 11 50.5C 11 53.813709 13.686292 56.5 17 56.5C 20.313709 56.5 23 53.813709 23 50.5C 23 47.186295 20.313709 44.5 17 44.5C 13.686292 44.5 11 47.186295 11 50.5M 47 46.5L 27 46.5L 17 50.5"></path></g></g></g><g id="g-root-limi_dg2rvgxvwv7l-stroke" data-item-order="0" transform="translate(423, 435.0001220703125)"><g id="limi_dg2rvgxvwv7l-stroke" fill="none" stroke-linecap="round" stroke-linejoin="round" stroke-miterlimit="4" stroke="#de8431" stroke-width="2"><g><path d="M 52.5 30.5L 52.5 19.5M 52.5 19.5C 54.709202 19.5 56.5 17.709141 56.5 15.5C 56.5 13.29086 54.709202 11.5 52.5 11.5C 50.290798 11.5 48.5 13.29086 48.5 15.5C 48.5 17.709141 50.290798 19.5 52.5 19.5ZM 11.5 52.099998C 11.5 39.700001 21.5446 29.699961 34 29.699961C 46.455399 29.699961 56.5 39.700001 56.5 52.099998M 34 55.700001C 35.656799 55.700001 37 54.3568 37 52.700001C 37 51.042999 35.656799 49.700001 34 49.700001C 32.343201 49.700001 31 51.042999 31 52.700001C 31 54.3568 32.343201 55.700001 34 55.700001ZM 10 10M 28.300039 37.099998L 32.900002 49.900002M 10 10M 39.700001 37.099998L 38.700001 39.900002M 10 10M 48.400002 44.5L 45.400002 46.299999M 10 10M 19.599979 44.5L 22.599979 46.299999M 10 10M 50.400002 55.5L 47.400002 55.099998M 10 10M 17.599979 55.5L 20.599979 55.099998"></path></g></g></g><g id="g-root-tx_performa_13z94f0xw2i2r-stroke" data-item-order="0" transform="translate(513, 423.0001220703125)"></g><g id="g-root-tx_ensuring_58wwsxw13i9-stroke" data-item-order="0" transform="translate(57, 483.0001220703125)"></g><g id="g-root-tx_ensuring_8zhy4xwcao9-stroke" data-item-order="0" transform="translate(196, 39.0001220703125)"></g></g></g></svg>