<?xml version="1.0" encoding="utf-8" standalone="yes"?>
<!DOCTYPE svg PUBLIC "-//W3C//DTD SVG 1.1//EN" "http://www.w3.org/Graphics/SVG/1.1/DTD/svg11.dtd">
<svg width="1011" height="698" viewBox="0 0 1011 698" style="fill:none;stroke:none;fill-rule:evenodd;clip-rule:evenodd;stroke-linecap:round;stroke-linejoin:round;stroke-miterlimit:1.5;" version="1.1" xmlns="http://www.w3.org/2000/svg" xmlns:xlink="http://www.w3.org/1999/xlink"><style id="fontImports">@import url("https://fonts.googleapis.com/css2?family=Roboto:wght@400;700&amp;display=block");</style><rect id="" x="0" y="0" width="1011" height="698" style="fill: #ffffff;"></rect><g id="items" style="isolation: isolate"><g id="blend" style="mix-blend-mode: normal"><g id="g-root-tf_hv9w3wv4ht6u-fill" data-item-order="-702264" transform="translate(-9, -9)"><g id="tf_hv9w3wv4ht6u-fill" stroke="none" fill="#ffffff"><g><path d="M 10 10L 1019 10L 1019 706L 10 706Z"></path></g></g></g><g id="g-root--1.g-0e_fr_djtg3wv4ge89-fill" data-item-order="-553526" transform="translate(555, 426)"><g id="-1.g-0e_fr_djtg3wv4ge89-fill" stroke="none" fill="url(#gradient-cbcbcb-248399021)"><g><path d="M 134.344 64C 134.344 60.6863 131.657 58 128.344 58L 12.3436 58L 27.9294 73.5858C 28.7104 74.3668 29.9767 74.3668 30.7578 73.5858L 38.3436 66L 43.7578 71.4142C 44.1329 71.7893 44.6416 72 45.172 72L 49.5151 72C 50.0456 72 50.5543 71.7893 50.9294 71.4142L 56.3436 66L 60.9294 70.5858C 61.7104 71.3668 62.9767 71.3668 63.7578 70.5858L 68.3436 66L 74.3436 66L 78.9294 70.5858C 79.7104 71.3668 80.9767 71.3668 81.7578 70.5858L 86.3436 66L 91.7578 71.4142C 92.1329 71.7893 92.6416 72 93.172 72L 104.3436 72L 105.7578 73.4142C 106.1329 73.7893 106.6416 74 107.172 74L 113.515 74C 114.046 74 114.554 73.7893 114.929 73.4142L 122.344 66L 127.758 71.4142C 128.133 71.7893 128.642 72 129.172 72L 134.344 72L 134.344 64ZM 131.343 44.0003C 131.343 40.6866 128.657 38.0003 125.343 38.0003L 24.343 38.0003L 12.343 50.0003L 125.343 50.0003C 128.657 50.0003 131.343 47.3141 131.343 44.0003ZM 140.343 85.0003C 141.815 85.0003 143.163 84.4642 144.206 83.5744L 143.971 25.2355C 142.963 24.4604 141.706 24.0003 140.343 24.0003C 137.053 24.0003 134.381 26.6801 134.343 30.0003L 34.8283 30.0003C 33.237 30.0003 31.7109 30.6324 30.5857 31.7576L 24.343 38.0003L 125.343 38.0003C 128.657 38.0003 131.343 40.6866 131.343 44.0003C 131.343 47.3141 128.657 50.0003 125.343 50.0003L 12.343 50.0003L 11.1716 51.1718C 9.6095 52.7339 9.6095 55.2666 11.1716 56.8287L 12.3436 58L 128.344 58C 131.657 58 134.344 60.6863 134.344 64L 134.344 72L 134.343 78.9289C 134.343 82.282 137.029 85.0003 140.343 85.0003ZM 209.491 10C 212.172 10 214.787 10.9097 216.389 13.06C 220.128 18.0784 226.344 29.8948 226.344 53C 226.344 76.1052 220.128 87.9216 216.389 92.94C 214.787 95.0903 212.172 96 209.491 96L 166.196 96C 163.515 96 160.901 95.0903 159.298 92.94C 158.549 91.9345 157.7 90.6559 156.822 89.0683C 153.92 83.8211 158.347 78 164.344 78C 167.657 78 170.344 75.3137 170.344 72L 170.344 36C 170.344 32.6863 167.657 30 164.344 30C 158.004 30 153.241 23.9501 156.102 18.2927C 157.233 16.0578 158.346 14.3383 159.298 13.06C 160.901 10.9097 163.515 10 166.196 10L 209.491 10ZM 207.462 36.0003L 208.224 36.0003C 210.961 36.0003 213.653 36.9925 214.832 39.4619C 216.076 42.0664 217.343 46.3509 217.343 53.0003C 217.343 59.6498 216.076 63.9343 214.832 66.5387C 213.653 69.0082 210.961 70.0003 208.224 70.0003L 207.462 70.0003C 204.725 70.0003 202.033 69.0082 200.854 66.5387C 199.61 63.9343 198.343 59.6498 198.343 53.0003C 198.343 46.3509 199.61 42.0664 200.854 39.4619C 202.033 36.9925 204.725 36.0003 207.462 36.0003Z"></path></g></g></g><g id="g-root--1.g-0d_fr_8zetov4gcnf-fill" data-item-order="-553522" transform="translate(536.238037109375, 254.573974609375)"><g id="-1.g-0d_fr_8zetov4gcnf-fill" stroke="none" fill="url(#gradient-cbcbcb-248399021)"><g><path d="M 106.183 102.2797C 103.8403 99.9361 100.0413 99.9354 97.6977 102.2781L 15.6584 184.288L 37.7 184.292C 38.8046 184.292 39.7002 183.397 39.7004 182.292L 39.7024 171.564L 46.1876 171.565C 47.2922 171.565 48.1878 170.67 48.188 169.566L 48.1892 163.08L 52.4326 158.838L 62.9179 158.84C 63.4483 158.84 63.9571 158.63 64.3322 158.255L 68.8183 153.77C 69.1934 153.395 69.4042 152.887 69.4043 152.356L 69.4062 141.871L 77.0631 141.872C 77.5935 141.872 78.1023 141.662 78.4774 141.287L 81.549 138.216C 81.9242 137.841 82.135 137.333 82.1351 136.802L 82.1357 133.388L 85.5499 133.389C 86.0804 133.389 86.5891 133.178 86.9642 132.803L 90.0359 129.733C 90.411 129.358 90.6218 128.849 90.6219 128.318L 90.6233 120.662L 97.1086 120.663C 98.2132 120.663 99.1088 119.768 99.109 118.663L 99.1101 112.178L 106.767 112.179C 107.2974 112.179 107.8062 111.969 108.1813 111.594L 111.839 107.9375L 106.183 102.2797ZM 89.9211 90.2568C 87.5783 87.9132 83.7793 87.9125 81.4358 90.2552L 10.005 161.66L 10.0019 178.631L 89.9195 98.742C 92.2631 96.3993 92.2638 92.6003 89.9211 90.2568ZM 123.758 102.8927L 90.6035 69.726C 88.2279 67.4302 84.4633 67.4324 82.145 69.7499C 79.8181 72.0759 79.8231 75.8599 82.1437 78.2348L 11.7631 148.59C 10.6376 149.715 10.0052 151.241 10.0049 152.832L 10 180.288C 9.9996 182.497 11.7901 184.288 13.9993 184.289L 15.6584 184.288L 97.6977 102.2781C 100.0413 99.9354 103.8403 99.9361 106.183 102.2797L 111.839 107.9375L 116.735 112.839C 119.105 115.211 122.927 115.234 125.271 112.891C 128.565 109.598 126.464 105.5991 123.758 102.8927ZM 89.9195 98.742L 10.0019 178.631L 10.005 161.66L 81.4358 90.2552C 83.7793 87.9125 87.5783 87.9132 89.9211 90.2568C 92.2638 92.6003 92.2631 96.3993 89.9195 98.742ZM 124.601 11.7567C 126.122 10.2365 128.34 9.6463 130.415 10.2098L 169.347 20.7803C 171.403 21.3385 173.008 22.9447 173.566 25.0007L 184.122 63.9366C 184.685 66.012 184.094 68.2298 182.573 69.75L 154.251 98.0621C 152.73 99.5824 150.512 100.1725 148.437 99.6091L 133.117 95.4495C 133.012 95.4211 132.977 95.29 133.054 95.2133C 135.397 92.8706 135.398 89.0716 133.055 86.728L 107.6043 61.2675C 105.2615 58.9239 101.4625 58.9233 99.119 61.266C 99.0424 61.3426 98.9116 61.3077 98.8832 61.2032L 94.7294 45.8823C 94.1667 43.8069 94.7577 41.5891 96.2785 40.0688L 124.601 11.7567ZM 164.377 34.1503L 167.034 43.7648C 167.671 46.0677 167.02 48.535 165.33 50.2241C 162.739 52.8144 158.538 52.8136 155.948 50.2224L 144.119 38.3891C 141.529 35.7978 141.529 31.5973 144.121 29.007C 145.81 27.3179 148.278 26.6678 150.581 27.3052L 160.194 29.9662C 162.227 30.5288 163.815 32.1174 164.377 34.1503Z"></path></g></g></g><g id="g-root--1.g-0c_fr_1hitgb0v4geth-fill" data-item-order="-553518" transform="translate(451.12530517578125, 182.12548828125)"><g id="-1.g-0c_fr_1hitgb0v4geth-fill" stroke="none" fill="url(#gradient-cbcbcb-248399021)"><g><path d="M 63.874793 113.876077C 60.561093 113.876077 57.874793 116.562077 57.874793 119.876077L 57.874793 235.874077L 57.874793 235.876077L 73.460593 220.290077C 74.241693 219.509077 74.241693 218.242077 73.460593 217.461077L 65.874793 209.876077L 71.288993 204.461077C 71.664093 204.086077 71.874793 203.578077 71.874793 203.047077L 71.874793 198.704077C 71.874793 198.174077 71.664093 197.665077 71.288993 197.290077L 65.874793 191.876077L 73.288993 184.461077C 73.664093 184.086077 73.874793 183.578077 73.874793 183.047077L 73.874793 176.704077C 73.874793 176.174077 73.664093 175.665077 73.288993 175.290077L 65.874793 167.876077L 70.460593 163.290077C 71.241693 162.509077 71.241693 161.242077 70.460593 160.461077L 65.874793 155.876077L 71.288993 150.461077C 71.664093 150.086077 71.874793 149.578077 71.874793 149.047077L 71.874793 144.704077C 71.874793 144.174077 71.664093 143.665077 71.288993 143.290077L 65.874793 137.876077L 70.460593 133.290077C 71.241693 132.509077 71.241693 131.242077 70.460593 130.461077L 65.874793 125.876077L 71.288993 120.461077C 71.664093 120.086077 71.874793 119.578077 71.874793 119.047077L 71.874793 113.876077L 63.874793 113.876077ZM 43.875093 116.876077C 40.561393 116.876077 37.875093 119.562077 37.875093 122.876077L 37.875093 223.875077L 37.875093 223.876077L 49.875093 235.875077L 49.875093 122.876077C 49.875093 119.562077 47.188793 116.876077 43.875093 116.876077ZM 57.874793 119.876077C 57.874793 116.562077 60.561093 113.876077 63.874793 113.876077L 71.874793 113.876077L 78.803293 113.874077C 82.156393 113.874077 84.874593 111.188077 84.874593 107.874477C 84.874593 104.560777 82.156393 101.874477 78.803293 101.874477L 29.198693 101.919477C 26.198193 102.283477 23.874693 104.810877 23.874693 107.874477C 23.874693 111.165077 26.554393 113.836077 29.874593 113.874077L 29.874593 213.389077C 29.874593 214.980077 30.506793 216.507077 31.631993 217.632077L 37.875093 223.875077L 37.875093 122.876077C 37.875093 119.562077 40.561393 116.876077 43.875093 116.876077C 47.188793 116.876077 49.875093 119.562077 49.875093 122.876077L 49.875093 235.875077L 51.046193 237.046077C 52.608293 238.608077 55.140993 238.608077 56.703093 237.046077L 57.874793 235.874077L 57.874793 119.876077ZM 29.874993 83.875077C 29.874993 80.561377 32.561293 77.875077 35.874993 77.875077L 71.874993 77.875077C 75.188693 77.875077 77.874993 80.561377 77.874993 83.875077C 77.874993 86.769177 81.054793 88.440477 83.206393 86.505077C 92.135193 78.473577 97.749993 66.830077 97.749993 53.875077C 97.749993 29.643577 78.106493 10.000076 53.874993 10.000077C 29.643493 10.000078 9.999992 29.643577 9.999993 53.875077C 9.999994 66.830077 15.614793 78.473577 24.543593 86.505077C 26.695193 88.440477 29.874993 86.769177 29.874993 83.875077ZM 53.875093 39.876177C 59.397993 39.876177 63.875093 35.399077 63.875093 29.876177C 63.875093 24.353377 59.397993 19.876177 53.875093 19.876177C 48.352293 19.876177 43.875093 24.353377 43.875093 29.876177C 43.875093 35.399077 48.352293 39.876177 53.875093 39.876177Z"></path></g></g></g><g id="g-root--1.g-0b_fr_147zf0sv4gd8n-fill" data-item-order="-553514" transform="translate(285.59002685546875, 260.590087890625)"><g id="-1.g-0b_fr_147zf0sv4gd8n-fill" stroke="none" fill="url(#gradient-cbcbcb-248399021)"><g><path d="M 95.689869 81.5477C 93.346669 83.8909 93.346669 87.6899 95.689869 90.033L 177.713969 172.057L 177.713969 154.258C 177.713969 153.154 176.818969 152.258 175.713969 152.258L 169.228969 152.258L 169.228969 144.602C 169.228969 144.071 169.017969 143.562 168.642969 143.187L 165.571969 140.116C 165.196969 139.741 164.687969 139.53 164.157969 139.53L 156.500969 139.53L 152.257969 135.288L 152.257969 127.631C 152.257969 127.101 152.047969 126.592 151.672969 126.217L 148.601969 123.146C 148.226969 122.771 147.717969 122.56 147.186969 122.56L 139.530969 122.56L 139.530969 111.832C 139.530969 110.727 138.634969 109.832 137.529969 109.832L 126.802969 109.832L 126.802969 103.3467C 126.802969 102.2421 125.906969 101.3467 124.802969 101.3467L 122.559969 101.3467L 122.559969 95.1041C 122.559969 94.5736 122.348969 94.0649 121.973969 93.6899L 117.488969 89.2046C 117.113969 88.8295 116.604969 88.6188 116.074969 88.6188L 105.589369 88.6188L 105.589369 80.9619C 105.589369 80.4315 105.378569 79.9228 105.003569 79.5477L 101.346669 75.8909L 95.689869 81.5477ZM 83.669669 97.8114C 81.326469 100.1545 81.326469 103.9535 83.669669 106.2966L 155.086969 177.714L 172.057969 177.714L 92.154969 97.8114C 89.811769 95.4682 86.012769 95.4682 83.669669 97.8114ZM 97.760669 62.5063L 97.740369 62.5266L 62.526569 97.7404L 62.621869 97.7382C 60.858069 100.1112 61.034069 103.4605 63.162969 105.5894C 65.489469 107.9159 69.273469 107.9101 71.647869 105.5891L 142.015969 175.957C 143.140969 177.082 144.666969 177.714 146.257969 177.714L 155.086969 177.714L 83.669669 106.2966C 81.326469 103.9535 81.326469 100.1545 83.669669 97.8114C 86.012769 95.4682 89.811769 95.4682 92.154969 97.8114L 172.057969 177.714L 173.713969 177.714C 175.922969 177.714 177.713969 175.923 177.713969 173.714L 177.713969 172.057L 95.689869 90.033C 93.346669 87.6899 93.346669 83.8909 95.689869 81.5477L 101.346669 75.8909L 106.245969 70.9916C 108.616969 68.6206 108.639569 64.7991 106.296369 62.4559C 103.953269 60.1128 100.131669 60.1354 97.760669 62.5063ZM 23.564969 94.2757C 15.754469 86.4652 15.754469 73.8019 23.564969 65.9914C 24.736469 64.8198 24.736469 62.9203 23.564969 61.7487L 17.908069 56.0919C 7.363969 45.5477 7.363969 28.4523 17.908069 17.9081C 28.452269 7.364 45.547669 7.364 56.091869 17.9081L 61.748669 23.565C 62.920269 24.7365 64.819769 24.7365 65.991369 23.565C 73.801869 15.7545 86.465169 15.7545 94.275669 23.565C 102.086069 31.3754 102.086069 44.0388 94.275669 51.8492L 51.849169 94.2757C 44.038769 102.0861 31.375469 102.0861 23.564969 94.2757ZM 41.243269 27.1007C 45.148469 31.0059 45.148469 37.3376 41.243269 41.2428C 37.337969 45.1481 31.006369 45.1481 27.101069 41.2428C 23.195869 37.3376 23.195869 31.0059 27.101069 27.1007C 31.006369 23.1954 37.337969 23.1954 41.243269 27.1007Z"></path></g></g></g><g id="g-root--1.g-0a_fr_qwiwngv4getl-fill" data-item-order="-553510" transform="translate(209.3280029296875, 422.926025390625)"><g id="-1.g-0a_fr_qwiwngv4getl-fill" stroke="none" fill="url(#gradient-cbcbcb-248399021)"><g><path d="M 111.703 48.1063C 111.703 51.42 114.389 54.1063 117.703 54.1063L 233.703 54.1063L 218.288 38.6921C 217.913 38.317 217.405 38.1063 216.874 38.1063L 210.531 38.1063C 210.001 38.1063 209.492 38.317 209.117 38.6921L 201.703 46.1063L 196.288 40.6921C 195.913 40.317 195.405 40.1063 194.874 40.1063L 190.531 40.1063C 190.001 40.1063 189.492 40.317 189.117 40.6921L 183.703 46.1063L 179.117 41.5205C 178.336 40.7395 177.069 40.7395 176.288 41.5205L 171.703 46.1063L 164.117 38.5205C 163.336 37.7395 162.069 37.7395 161.288 38.5205L 153.703 46.1063L 149.117 41.5205C 148.336 40.7395 147.069 40.7395 146.288 41.5205L 141.703 46.1063L 136.288 40.6921C 135.913 40.317 135.405 40.1063 134.874 40.1063L 130.531 40.1063C 130.001 40.1063 129.492 40.317 129.117 40.6921L 123.703 46.1063L 118.288 40.6921C 117.913 40.317 117.405 40.1063 116.874 40.1063L 111.703 40.1063L 111.703 48.1063ZM 114.702 68.106C 114.702 71.4197 117.388 74.106 120.702 74.106L 221.7 74.106L 221.702 74.106L 233.702 62.106L 233.7 62.106L 120.702 62.106C 117.388 62.106 114.702 64.7923 114.702 68.106ZM 99.7015 33.1761L 99.702 82.1087C 99.7418 85.4271 102.4126 88.1047 105.7015 88.1047C 108.9917 88.1047 111.663 85.425 111.701 82.1048L 211.216 82.1048C 212.807 82.1048 214.334 81.4726 215.459 80.3474L 221.7 74.106L 120.702 74.106C 117.388 74.106 114.702 71.4197 114.702 68.106C 114.702 64.7923 117.388 62.106 120.702 62.106L 233.7 62.106L 234.873 60.9332C 236.435 59.3711 236.435 56.8385 234.873 55.2764L 233.703 54.1063L 117.703 54.1063C 114.389 54.1063 111.703 51.42 111.703 48.1063L 111.703 46.1048L 111.701 46.1035L 111.701 33.1761C 111.701 29.823 109.0152 27.1048 105.7015 27.1048C 102.3878 27.1048 99.7015 29.823 99.7015 33.1761ZM 63.7491 103.8413C 60.6249 106.9655 55.5596 106.9655 52.4354 103.8413L 12.3432 63.7491C 9.2189 60.6249 9.219 55.5596 12.3432 52.4354L 52.4354 12.3431C 55.5596 9.219 60.6249 9.219 63.7491 12.3431L 85.4491 34.0431C 87.6995 36.2936 88.9638 39.3413 88.9638 42.5239C 88.9638 51.6767 88.9638 64.085 88.9638 73.6591C 88.9638 76.8417 87.6995 79.8909 85.4491 82.1413L 63.7491 103.8413ZM 43.3062 48.4888C 48.8291 48.4888 53.3062 52.966 53.3062 58.4888C 53.3062 64.0117 48.8291 68.4888 43.3062 68.4888C 37.7834 68.4888 33.3062 64.0117 33.3062 58.4888C 33.3062 52.966 37.7834 48.4888 43.3062 48.4888Z"></path></g></g></g><g id="g-root-5.g-5_fr_8vvrv0v4hslf-fill" data-item-order="-553506" transform="translate(688.97265625, 416)"><g id="5.g-5_fr_8vvrv0v4hslf-fill" stroke="none" fill="url(#gradient-fdac61-172712277)"><g><path d="M 86.6782 12.4501C 85.0132 10.7191 82.6595 10.000001 80.2577 10.000001L 28.4865 10C 26.0846 10 23.7309 10.7191 22.0659 12.4501C 18.863 15.7799 13.5454 22.7949 10 35.2352L 10.2354 93.5741C 13.7772 105.5105 18.9332 112.293 22.0659 115.55C 23.7309 117.281 26.0846 118 28.4865 118L 80.2577 118C 82.6595 118 85.0132 117.281 86.6782 115.55C 91.8103 110.214 102.3721 95.4175 102.3721 64C 102.3721 32.5825 91.8103 17.7856 86.6782 12.4501ZM 75.5198 19.9997C 78.2013 19.9997 80.8156 20.9094 82.4178 23.0596C 86.1573 28.078 92.3726 39.8945 92.3726 62.9997C 92.3726 86.1048 86.1573 97.9213 82.4178 102.9397C 80.8156 105.0899 78.2013 105.9997 75.5198 105.9997L 32.2255 105.9997C 29.5439 105.9997 26.9297 105.0899 25.3274 102.9397C 24.5781 101.9341 23.7294 100.6556 22.8512 99.068C 19.9487 93.8207 24.3761 87.9997 30.3726 87.9997C 33.6863 87.9997 36.3726 85.3134 36.3726 81.9997L 36.3726 45.9997C 36.3726 42.686 33.6863 39.9997 30.3726 39.9997C 24.0329 39.9997 19.2703 33.9497 22.1314 28.2923C 23.2616 26.0575 24.3749 24.338 25.3274 23.0596C 26.9297 20.9094 29.5439 19.9997 32.2255 19.9997L 75.5198 19.9997Z"></path></g></g></g><g id="g-root-4.g-4_fr_1um5sjwv4hqth-fill" data-item-order="-553502" transform="translate(609.96484375, 243.78515625)"><g id="4.g-4_fr_1um5sjwv4hqth-fill" stroke="none" fill="url(#gradient-ffed4b-499785973)"><g><path d="M 108.5154 30.632C 107.4011 26.5177 104.1878 23.3032 100.0738 22.1874L 56.6825 10.4187C 52.5329 9.2932 48.0983 10.4738 45.0576 13.5135L 13.5165 45.043C 10.4758 48.0826 9.2936 52.5168 10.4176 56.6668L 16.8765 80.5153L 50.159 113.809L 74.0033 120.276C 78.1529 121.401 82.5875 120.221 85.6283 117.181L 117.169 85.6515C 120.21 82.6118 121.392 78.1777 120.268 74.0277L 108.5154 30.632ZM 56.6879 20.9991L 95.62 31.5697C 97.6757 32.1278 99.2813 33.7341 99.8387 35.79L 110.395 74.7259C 110.958 76.8013 110.367 79.0191 108.8461 80.5394L 80.5237 108.8515C 79.0029 110.372 76.7848 110.962 74.7096 110.398L 59.3898 106.2389C 59.285 106.2104 59.2501 106.0794 59.3269 106.0026C 61.6705 103.6599 61.6712 99.8609 59.3285 97.5173L 33.8772 72.0569C 31.5345 69.7133 27.7355 69.7126 25.392 72.0553C 25.3153 72.1319 25.1846 72.097 25.1562 71.9925L 21.0024 56.6716C 20.4397 54.5962 21.0307 52.3784 22.5515 50.8582L 50.8739 22.5461C 52.3947 21.0258 54.6127 20.4357 56.6879 20.9991Z"></path></g></g></g><g id="g-root-3.g-3_fr_1hapa6kv4hsef-fill" data-item-order="-553498" transform="translate(441, 172)"><g id="3.g-3_fr_1hapa6kv4hsef-fill" stroke="none" fill="url(#gradient-bceb57-497517668)"><g><path d="M 88.7632 112C 106.1294 103.0226 118 84.8976 118 64C 118 34.1766 93.8234 9.999999 64 10C 34.1766 10.000001 9.999999 34.1766 10 64C 10.000001 84.9326 21.9104 103.0833 39.324 112.045L 88.7632 112ZM 40.0003 94.0006C 40.0003 90.6869 42.6866 88.0006 46.0003 88.0006L 82.0003 88.0006C 85.314 88.0006 88.0003 90.6869 88.0003 94.0006C 88.0003 96.8946 91.1801 98.566 93.3317 96.6306C 102.2605 88.5991 107.8753 76.9555 107.8753 64.0006C 107.8753 39.7691 88.2318 20.1256 64.0003 20.1256C 39.7688 20.1256 20.1253 39.7691 20.1253 64.0006C 20.1253 76.9555 25.7401 88.5991 34.6689 96.6306C 36.8205 98.566 40.0003 96.8946 40.0003 94.0006Z"></path></g></g></g><g id="g-root-2.g-2_fr_zk1qrwv4hrlt-fill" data-item-order="-553494" transform="translate(275.8818664550781, 250.8828125)"><g id="2.g-2_fr_zk1qrwv4hrlt-fill" stroke="none" fill="url(#gradient-64edab-240055791)"><g><path d="M 73.29437 22.382701L 71.45577 20.544201C 57.39697 6.4853 34.60297 6.4853 20.54417 20.544201C 6.48527 34.603001 6.48527 57.397001 20.54417 71.455801L 22.38267 73.2944C 14.66547 84.942601 15.93817 100.791101 26.20097 111.054001C 37.91667 122.770001 56.91167 122.770001 68.62737 111.054001L 111.05397 68.627401C 122.76997 56.911701 122.76997 37.916701 111.05397 26.201001C 100.79107 15.938201 84.94257 14.665501 73.29437 22.382701ZM 33.27207 103.982801C 25.46157 96.172301 25.46157 83.509001 33.27207 75.698501C 34.44367 74.526901 34.44357 72.6274 33.27207 71.455801L 27.61517 65.799001C 17.07107 55.254801 17.07107 38.159401 27.61517 27.615201C 38.15937 17.071101 55.25477 17.071101 65.79897 27.615201L 71.45577 33.272101C 72.62737 34.443601 74.52687 34.443601 75.69847 33.272101C 83.50897 25.461601 96.17227 25.461601 103.98267 33.272101C 111.79297 41.082601 111.79297 53.745901 103.98277 61.556301L 61.55637 103.982801C 53.74587 111.793001 41.08257 111.793001 33.27207 103.982801Z"></path></g></g></g><g id="g-root-1.g-1_fr_m8l8ekv4ht6r-fill" data-item-order="-553490" transform="translate(195.99996948242188, 410)"><defs><linearGradient id="gradient-cbcbcb-248399021" x2="0" y2="1"><stop offset="0" stop-color="#d9d9d9"></stop><stop offset="1" stop-color="#bcbcbc"></stop></linearGradient><linearGradient id="gradient-fdac61-172712277" x2="0" y2="1"><stop offset="0" stop-color="#ffc188"></stop><stop offset="1" stop-color="#fa963a"></stop></linearGradient><linearGradient id="gradient-ffed4b-499785973" x2="0" y2="1"><stop offset="0" stop-color="#fff282"></stop><stop offset="1" stop-color="#ffe714"></stop></linearGradient><linearGradient id="gradient-bceb57-497517668" x2="0" y2="1"><stop offset="0" stop-color="#cff976"></stop><stop offset="1" stop-color="#a8dd38"></stop></linearGradient><linearGradient id="gradient-64edab-240055791" x2="0" y2="1"><stop offset="0" stop-color="#83fac1"></stop><stop offset="1" stop-color="#44e095"></stop></linearGradient><linearGradient id="gradient-4dd3ff-378786070" x2="0" y2="1"><stop offset="0" stop-color="#7fdfff"></stop><stop offset="1" stop-color="#1ac6ff"></stop></linearGradient></defs><g id="1.g-1_fr_m8l8ekv4ht6r-fill" stroke="none" fill="url(#gradient-4dd3ff-378786070)"><g><path d="M 13.514731 62.5456C 8.828431 67.2319 8.828431 74.8299 13.514731 79.5162L 62.545631 128.547C 67.231931 133.233 74.829931 133.233 79.516231 128.547L 113.030031 95.0332L 113.030031 47.0281L 79.516231 13.5147C 74.829931 8.8284 67.231931 8.8284 62.545631 13.5147L 13.514731 62.5456ZM 65.763431 116.766L 25.671231 76.6736C 22.547031 73.5494 22.547031 68.4841 25.671231 65.3599L 65.763431 25.2677C 68.887631 22.1435 73.952931 22.1435 77.077131 25.2677L 98.777131 46.9677C 101.027631 49.2181 102.291831 52.2663 102.291831 55.4489C 102.291831 64.2652 102.291831 77.7989 102.291831 86.5841C 102.291831 89.7667 101.027631 92.8154 98.777131 95.0659L 77.077131 116.766C 73.952931 119.89 68.887631 119.89 65.763431 116.766Z"></path></g></g></g><g id="g-root-tx_involvem_18k22mkv4htdx-fill" data-item-order="0" transform="translate(87, 231)"><g id="tx_involvem_18k22mkv4htdx-fill" stroke="none" fill="#484848"><g><text style="font: 15px Roboto, sans-serif; white-space: pre;" font-size="15px" font-family="Roboto, sans-serif"><tspan x="79.2" y="31" dominant-baseline="ideographic">Involvement in </tspan><tspan x="24.23" y="49" dominant-baseline="ideographic">innovative projects like </tspan><tspan x="28.52" y="67" dominant-baseline="ideographic">TippBank and Loor.vc.</tspan></text></g></g></g><g id="g-root-tx_codingph_3zm4sv4hrew-fill" data-item-order="0" transform="translate(734.791015625, 171)"><g id="tx_codingph_3zm4sv4hrew-fill" stroke="none" fill="#484848"><g><text style="font: bold 20px Roboto, sans-serif; white-space: pre;" font-weight="bold" font-size="20px" font-family="Roboto, sans-serif"><tspan x="12" y="34" dominant-baseline="ideographic">Coding </tspan><tspan x="12" y="58" dominant-baseline="ideographic">Philosophy</tspan></text></g></g></g><g id="g-root-tx_emphasis_1heg4p8v4hqf5-fill" data-item-order="0" transform="translate(734.791015625, 231)"><g id="tx_emphasis_1heg4p8v4hqf5-fill" stroke="none" fill="#484848"><g><text style="font: 15px Roboto, sans-serif; white-space: pre;" font-size="15px" font-family="Roboto, sans-serif"><tspan x="12" y="31" dominant-baseline="ideographic">Emphasis on clean </tspan><tspan x="12" y="49" dominant-baseline="ideographic">code, performance, and </tspan><tspan x="12" y="67" dominant-baseline="ideographic">accessibility.</tspan></text></g></g></g><g id="g-root-tx_ricardoc_1umsj4cv4gdmz-fill" data-item-order="0" transform="translate(411, 519)"><g id="tx_ricardoc_1umsj4cv4gdmz-fill" stroke="none" fill="#484848"><g><text style="font: bold 20px Roboto, sans-serif; white-space: pre;" font-weight="bold" font-size="20px" font-family="Roboto, sans-serif"><tspan x="17.26" y="34" dominant-baseline="ideographic">Ricardo Camilo's </tspan><tspan x="34.87" y="58" dominant-baseline="ideographic">Professional </tspan><tspan x="61.76" y="82" dominant-baseline="ideographic">Profile</tspan></text></g></g></g><g id="g-root-tx_projecte_1qbc34cv4hr0s-fill" data-item-order="0" transform="translate(87, 171)"><g id="tx_projecte_1qbc34cv4hr0s-fill" stroke="none" fill="#484848"><g><text style="font: bold 20px Roboto, sans-serif; white-space: pre;" font-weight="bold" font-size="20px" font-family="Roboto, sans-serif"><tspan x="111.59" y="34" dominant-baseline="ideographic">Project </tspan><tspan x="76.67" y="58" dominant-baseline="ideographic">Experience</tspan></text></g></g></g><g id="g-root-tx_collabor_141472kv4hszq-fill" data-item-order="0" transform="translate(807.0499877929688, 381)"><g id="tx_collabor_141472kv4hszq-fill" stroke="none" fill="#484848"><g><text style="font: bold 20px Roboto, sans-serif; white-space: pre;" font-weight="bold" font-size="20px" font-family="Roboto, sans-serif"><tspan x="12" y="34" dominant-baseline="ideographic">Collaboration &amp; </tspan><tspan x="12" y="58" dominant-baseline="ideographic">Growth</tspan></text></g></g></g><g id="g-root-tx_technica_mdl13gv4hslq-fill" data-item-order="0" transform="translate(15, 405)"><g id="tx_technica_mdl13gv4hslq-fill" stroke="none" fill="#484848"><g><text style="font: bold 20px Roboto, sans-serif; white-space: pre;" font-weight="bold" font-size="20px" font-family="Roboto, sans-serif"><tspan x="35.03" y="34" dominant-baseline="ideographic">Technical Skills</tspan></text></g></g></g><g id="g-root-tx_itmanage_dgp2ocv4hs03-fill" data-item-order="0" transform="translate(412, 75)"><g id="tx_itmanage_dgp2ocv4hs03-fill" stroke="none" fill="#484848"><g><text style="font: 15px Roboto, sans-serif; white-space: pre;" font-size="15px" font-family="Roboto, sans-serif"><tspan x="15.13" y="28" dominant-baseline="ideographic">IT Management degree </tspan><tspan x="14.66" y="46" dominant-baseline="ideographic">from FATEC, ensuring a </tspan><tspan x="43.97" y="64" dominant-baseline="ideographic">solid technical </tspan><tspan x="53.98" y="82" dominant-baseline="ideographic">foundation.</tspan></text></g></g></g><g id="g-root-tx_educatio_v7cm30v4hssq-fill" data-item-order="0" transform="translate(412, 39)"><g id="tx_educatio_v7cm30v4hssq-fill" stroke="none" fill="#484848"><g><text style="font: bold 20px Roboto, sans-serif; white-space: pre;" font-weight="bold" font-size="20px" font-family="Roboto, sans-serif"><tspan x="49.39" y="34" dominant-baseline="ideographic">Education</tspan></text></g></g></g><g id="g-root-tx_crafting_1uneqq4v4hszp-fill" data-item-order="0" transform="translate(153.5, -9)"><g id="tx_crafting_1uneqq4v4hszp-fill" stroke="none" fill="#484848"><g><text style="font: 20px Roboto, sans-serif; white-space: pre;" font-size="20px" font-family="Roboto, sans-serif"><tspan x="15.17" y="34" dominant-baseline="ideographic">Crafting Impactful Digital Experiences Through Innovation and Collaboration</tspan></text></g></g></g><g id="g-root-tx_proficie_4mxhosv4hrt3-fill" data-item-order="0" transform="translate(15, 441)"><g id="tx_proficie_4mxhosv4hrt3-fill" stroke="none" fill="#484848"><g><text style="font: 15px Roboto, sans-serif; white-space: pre;" font-size="15px" font-family="Roboto, sans-serif"><tspan x="15.92" y="31" dominant-baseline="ideographic">Proficiency in React and </tspan><tspan x="56.05" y="49" dominant-baseline="ideographic">Vue.js for building </tspan><tspan x="31.28" y="67" dominant-baseline="ideographic">scalable applications.</tspan></text></g></g></g><g id="g-root-code_1lxe098v4hqtc-fill" data-item-order="0" transform="translate(459, 435)"></g><g id="g-root-tx_openness_hun5jgv4hs7j-fill" data-item-order="0" transform="translate(807.0499877929688, 441)"><g id="tx_openness_hun5jgv4hs7j-fill" stroke="none" fill="#484848"><g><text style="font: 15px Roboto, sans-serif; white-space: pre;" font-size="15px" font-family="Roboto, sans-serif"><tspan x="12" y="31" dominant-baseline="ideographic">Openness to new </tspan><tspan x="12" y="49" dominant-baseline="ideographic">challenges and </tspan><tspan x="12" y="67" dominant-baseline="ideographic">knowledge exchange.</tspan></text></g></g></g><g id="g-root-tf_hv9w3wv4ht6u-stroke" data-item-order="-702264" transform="translate(-9, -9)"></g><g id="g-root--1.g-0e_fr_djtg3wv4ge89-stroke" data-item-order="-553526" transform="translate(555, 426)"><g id="-1.g-0e_fr_djtg3wv4ge89-stroke" fill="none" stroke-linecap="round" stroke-linejoin="round" stroke-miterlimit="4" stroke="#484848" stroke-width="2"><g><path d="M 134.3436 64C 134.3436 60.6863 131.6573 58 128.3436 58L 12.3436 58L 27.9294 73.5858C 28.7104 74.3668 29.9767 74.3668 30.7578 73.5858L 38.3436 66L 43.7578 71.4142C 44.1329 71.7893 44.6416 72 45.172 72L 49.5151 72C 50.0456 72 50.5543 71.7893 50.9294 71.4142L 56.3436 66L 60.9294 70.5858C 61.7104 71.3668 62.9767 71.3668 63.7578 70.5858L 68.3436 66L 74.3436 66L 78.9294 70.5858C 79.7104 71.3668 80.9767 71.3668 81.7578 70.5858L 86.3436 66L 91.7578 71.4142C 92.1329 71.7893 92.6416 72 93.172 72L 104.3436 72L 105.7578 73.4142C 106.1329 73.7893 106.6416 74 107.172 74L 113.5152 74C 114.0456 74 114.5543 73.7893 114.9294 73.4142L 122.3436 66L 127.7578 71.4142C 128.1329 71.7893 128.6416 72 129.172 72L 134.3436 72L 134.3436 64ZM 131.343 44.0003C 131.343 40.6866 128.6567 38.0003 125.343 38.0003L 24.343 38.0003L 12.343 50.0003L 125.343 50.0003C 128.6567 50.0003 131.343 47.3141 131.343 44.0003ZM 140.343 85.0003C 141.8146 85.0003 143.1625 84.4642 144.2063 83.5744L 143.9709 25.2355C 142.9634 24.4604 141.7063 24.0003 140.343 24.0003C 137.0528 24.0003 134.3812 26.6801 134.3434 30.0003L 34.8283 30.0003C 33.237 30.0003 31.7109 30.6324 30.5857 31.7576L 24.343 38.0003L 125.343 38.0003C 128.6567 38.0003 131.343 40.6866 131.343 44.0003C 131.343 47.3141 128.6567 50.0003 125.343 50.0003L 12.343 50.0003L 11.1716 51.1718C 9.6095 52.7339 9.6095 55.2666 11.1716 56.8287L 12.3436 58L 128.3436 58C 131.6573 58 134.3436 60.6863 134.3436 64L 134.3436 72L 134.343 78.9289C 134.343 82.282 137.0293 85.0003 140.343 85.0003ZM 209.4907 10C 212.1723 10 214.7865 10.9097 216.3888 13.06C 220.1282 18.0784 226.3436 29.8948 226.3436 53C 226.3436 76.1052 220.1282 87.9216 216.3888 92.94C 214.7865 95.0903 212.1723 96 209.4907 96L 166.1964 96C 163.5149 96 160.9006 95.0903 159.2984 92.94C 158.5491 91.9345 157.7004 90.6559 156.8222 89.0683C 153.9196 83.8211 158.347 78 164.3436 78C 167.6573 78 170.3436 75.3137 170.3436 72L 170.3436 36C 170.3436 32.6863 167.6573 30 164.3436 30C 158.0038 30 153.2412 23.9501 156.1023 18.2927C 157.2326 16.0578 158.3458 14.3383 159.2984 13.06C 160.9006 10.9097 163.5149 10 166.1964 10L 209.4907 10ZM 207.4619 36.0003L 208.2242 36.0003C 210.9608 36.0003 213.6527 36.9925 214.8322 39.4619C 216.0763 42.0664 217.343 46.3509 217.343 53.0003C 217.343 59.6498 216.0763 63.9343 214.8322 66.5387C 213.6527 69.0082 210.9608 70.0003 208.2242 70.0003L 207.4619 70.0003C 204.7252 70.0003 202.0333 69.0082 200.8538 66.5387C 199.6097 63.9343 198.343 59.6498 198.343 53.0003C 198.343 46.3509 199.6097 42.0664 200.8538 39.4619C 202.0333 36.9925 204.7252 36.0003 207.4619 36.0003Z"></path></g></g></g><g id="g-root--1.g-0d_fr_8zetov4gcnf-stroke" data-item-order="-553522" transform="translate(536.238037109375, 254.573974609375)"><g id="-1.g-0d_fr_8zetov4gcnf-stroke" fill="none" stroke-linecap="round" stroke-linejoin="round" stroke-miterlimit="4" stroke="#484848" stroke-width="2"><g><path d="M 106.183 102.2797C 103.8403 99.9361 100.0413 99.9354 97.6977 102.2781L 15.6584 184.2876L 37.7 184.2916C 38.8046 184.2918 39.7002 183.3965 39.7004 182.2919L 39.7024 171.564L 46.1876 171.5652C 47.2922 171.5654 48.1878 170.6701 48.188 169.5656L 48.1892 163.0803L 52.4326 158.8384L 62.9179 158.8403C 63.4483 158.8404 63.9571 158.6298 64.3322 158.2548L 68.8183 153.7703C 69.1934 153.3953 69.4042 152.8867 69.4043 152.3562L 69.4063 141.8709L 77.0631 141.8723C 77.5935 141.8724 78.1023 141.6618 78.4774 141.2868L 81.549 138.2163C 81.9242 137.8413 82.135 137.3326 82.1351 136.8022L 82.1357 133.388L 85.5499 133.3886C 86.0804 133.3887 86.5891 133.1781 86.9642 132.8031L 90.0359 129.7326C 90.411 129.3576 90.6218 128.8489 90.6219 128.3185L 90.6233 120.6616L 97.1086 120.6628C 98.2132 120.663 99.1088 119.7677 99.109 118.6631L 99.1101 112.1779L 106.767 112.1793C 107.2974 112.1794 107.8062 111.9687 108.1813 111.5937L 111.8388 107.9375L 106.183 102.2797ZM 89.9211 90.2568C 87.5783 87.9132 83.7793 87.9125 81.4358 90.2552L 10.005 161.66L 10.0019 178.6306L 89.9195 98.742C 92.2631 96.3993 92.2638 92.6003 89.9211 90.2568ZM 123.7582 102.8927L 90.6035 69.726C 88.2279 67.4302 84.4633 67.4324 82.145 69.7499C 79.8181 72.0759 79.8231 75.8599 82.1437 78.2348L 11.7631 148.5898C 10.6376 149.7148 10.0052 151.2408 10.0049 152.8321L 10 180.2879C 9.9996 182.497 11.7901 184.2882 13.9993 184.2886L 15.6584 184.2876L 97.6977 102.2781C 100.0413 99.9354 103.8403 99.9361 106.183 102.2797L 111.8388 107.9375L 116.7349 112.8392C 119.1054 115.2106 122.927 115.2339 125.2706 112.8912C 128.565 109.598 126.4636 105.5991 123.7582 102.8927ZM 89.9195 98.742L 10.0019 178.6306L 10.005 161.66L 81.4358 90.2552C 83.7793 87.9125 87.5783 87.9132 89.9211 90.2568C 92.2638 92.6003 92.2631 96.3993 89.9195 98.742ZM 124.6009 11.7567C 126.1217 10.2365 128.3397 9.6463 130.4149 10.2098L 169.347 20.7803C 171.4027 21.3385 173.0083 22.9447 173.5658 25.0007L 184.1221 63.9366C 184.6848 66.012 184.0939 68.2298 182.5731 69.75L 154.2507 98.0621C 152.7299 99.5824 150.5118 100.1725 148.4366 99.6091L 133.1168 95.4495C 133.012 95.4211 132.9771 95.29 133.0539 95.2133C 135.3975 92.8706 135.3982 89.0716 133.0555 86.728L 107.6043 61.2675C 105.2615 58.9239 101.4626 58.9233 99.119 61.266C 99.0424 61.3426 98.9116 61.3077 98.8832 61.2032L 94.7294 45.8823C 94.1667 43.8069 94.7577 41.5891 96.2785 40.0688L 124.6009 11.7567ZM 164.3767 34.1503L 167.0342 43.7648C 167.6707 46.0677 167.0198 48.535 165.33 50.2241C 162.7388 52.8144 158.5383 52.8136 155.948 50.2224L 144.119 38.3891C 141.5286 35.7978 141.5294 31.5973 144.1207 29.007C 145.8104 27.3179 148.2779 26.6678 150.5806 27.3052L 160.1942 29.9662C 162.2268 30.5288 163.8148 32.1174 164.3767 34.1503Z"></path></g></g></g><g id="g-root--1.g-0c_fr_1hitgb0v4geth-stroke" data-item-order="-553518" transform="translate(451.12530517578125, 182.12548828125)"><g id="-1.g-0c_fr_1hitgb0v4geth-stroke" fill="none" stroke-linecap="round" stroke-linejoin="round" stroke-miterlimit="4" stroke="#484848" stroke-width="2"><g><path d="M 63.874793 113.875677C 60.561093 113.875677 57.874793 116.561977 57.874793 119.875677L 57.874793 235.874177L 57.874793 235.875677L 73.460593 220.289877C 74.241693 219.508777 74.241693 218.242477 73.460593 217.461377L 65.874793 209.875677L 71.288993 204.461377C 71.664093 204.086377 71.874793 203.577677 71.874793 203.047177L 71.874793 198.704077C 71.874793 198.173677 71.664093 197.664877 71.288993 197.289877L 65.874793 191.875677L 73.288993 184.461377C 73.664093 184.086377 73.874793 183.577677 73.874793 183.047177L 73.874793 176.704077C 73.874793 176.173677 73.664093 175.664977 73.288993 175.289877L 65.874793 167.875677L 70.460593 163.289877C 71.241693 162.508777 71.241693 161.242477 70.460593 160.461377L 65.874793 155.875677L 71.288993 150.461377C 71.664093 150.086377 71.874793 149.577677 71.874793 149.047177L 71.874793 144.704077C 71.874793 144.173677 71.664093 143.664977 71.288993 143.289877L 65.874793 137.875677L 70.460593 133.289877C 71.241693 132.508777 71.241693 131.242477 70.460593 130.461377L 65.874793 125.875677L 71.288993 120.461377C 71.664093 120.086377 71.874793 119.577677 71.874793 119.047177L 71.874793 113.875677L 63.874793 113.875677ZM 43.875093 116.876177C 40.561393 116.876177 37.875093 119.562477 37.875093 122.876177L 37.875093 223.874877L 37.875093 223.876177L 49.875093 235.874877L 49.875093 122.876177C 49.875093 119.562477 47.188793 116.876177 43.875093 116.876177ZM 57.874793 119.875677C 57.874793 116.561977 60.561093 113.875677 63.874793 113.875677L 71.874793 113.875677L 78.803293 113.874477C 82.156393 113.874477 84.874593 111.188177 84.874593 107.874477C 84.874593 104.560777 82.156393 101.874477 78.803293 101.874477L 29.198693 101.919477C 26.198193 102.283477 23.874693 104.810877 23.874693 107.874477C 23.874693 111.164677 26.554393 113.836277 29.874593 113.874077L 29.874593 213.389177C 29.874593 214.980477 30.506793 216.506577 31.631993 217.631877L 37.875093 223.874877L 37.875093 122.876177C 37.875093 119.562477 40.561393 116.876177 43.875093 116.876177C 47.188793 116.876177 49.875093 119.562477 49.875093 122.876177L 49.875093 235.874877L 51.046193 237.045977C 52.608293 238.608077 55.140993 238.608077 56.703093 237.045977L 57.874793 235.874177L 57.874793 119.875677ZM 29.874993 83.875077C 29.874993 80.561377 32.561293 77.875077 35.874993 77.875077L 71.874993 77.875077C 75.188693 77.875077 77.874993 80.561377 77.874993 83.875077C 77.874993 86.769177 81.054793 88.440477 83.206393 86.505077C 92.135193 78.473577 97.749993 66.830077 97.749993 53.875077C 97.749993 29.643577 78.106493 10.000076 53.874993 10.000077C 29.643493 10.000078 9.999992 29.643577 9.999993 53.875077C 9.999994 66.830077 15.614793 78.473577 24.543593 86.505077C 26.695193 88.440477 29.874993 86.769177 29.874993 83.875077ZM 53.875093 39.876177C 59.397993 39.876177 63.875093 35.399077 63.875093 29.876177C 63.875093 24.353377 59.397993 19.876177 53.875093 19.876177C 48.352293 19.876177 43.875093 24.353377 43.875093 29.876177C 43.875093 35.399077 48.352293 39.876177 53.875093 39.876177Z"></path></g></g></g><g id="g-root--1.g-0b_fr_147zf0sv4gd8n-stroke" data-item-order="-553514" transform="translate(285.59002685546875, 260.590087890625)"><g id="-1.g-0b_fr_147zf0sv4gd8n-stroke" fill="none" stroke-linecap="round" stroke-linejoin="round" stroke-miterlimit="4" stroke="#484848" stroke-width="2"><g><path d="M 95.689869 81.5477C 93.346669 83.8909 93.346669 87.6899 95.689869 90.033L 177.714269 172.0574L 177.714269 154.2584C 177.714269 153.1538 176.818769 152.2584 175.714269 152.2584L 169.228969 152.2584L 169.228969 144.6015C 169.228969 144.0711 169.018269 143.5624 168.643169 143.1873L 165.572069 140.1163C 165.197069 139.7412 164.688269 139.5305 164.157869 139.5305L 156.501069 139.5305L 152.258369 135.2878L 152.258369 127.631C 152.258369 127.1005 152.047669 126.5918 151.672569 126.2168L 148.601569 123.1457C 148.226469 122.7706 147.717769 122.5599 147.187269 122.5599L 139.530469 122.5599L 139.530469 111.832C 139.530469 110.7274 138.635069 109.832 137.530469 109.832L 126.802569 109.832L 126.802569 103.3467C 126.802569 102.2421 125.907069 101.3467 124.802569 101.3467L 122.559869 101.3467L 122.559869 95.1041C 122.559869 94.5736 122.349169 94.0649 121.974069 93.6899L 117.488869 89.2046C 117.113769 88.8295 116.605069 88.6188 116.074569 88.6188L 105.589369 88.6188L 105.589369 80.9619C 105.589369 80.4315 105.378569 79.9228 105.003569 79.5477L 101.346669 75.8909L 95.689869 81.5477ZM 83.669669 97.8114C 81.326469 100.1545 81.326469 103.9535 83.669669 106.2966L 155.087469 177.7144L 172.057969 177.7144L 92.154969 97.8114C 89.811769 95.4682 86.012769 95.4682 83.669669 97.8114ZM 97.760669 62.5063L 97.740369 62.5266L 62.526569 97.7404L 62.621869 97.7382C 60.858069 100.1112 61.034069 103.4605 63.162969 105.5894C 65.489469 107.9159 69.273469 107.9102 71.647869 105.5891L 142.015669 175.9569C 143.140869 177.0821 144.667069 177.7143 146.258369 177.7143L 155.087469 177.7144L 83.669669 106.2966C 81.326469 103.9535 81.326469 100.1545 83.669669 97.8114C 86.012769 95.4682 89.811769 95.4682 92.154969 97.8114L 172.057969 177.7144L 173.714069 177.7142C 175.923269 177.7142 177.714069 175.9234 177.714069 173.7142L 177.714269 172.0574L 95.689869 90.033C 93.346669 87.6899 93.346669 83.8909 95.689869 81.5477L 101.346669 75.8909L 106.245969 70.9916C 108.616969 68.6206 108.639569 64.7991 106.296369 62.4559C 103.953269 60.1128 100.131669 60.1354 97.760669 62.5063ZM 23.564969 94.2757C 15.754469 86.4652 15.754469 73.8019 23.564969 65.9914C 24.736469 64.8198 24.736469 62.9203 23.564969 61.7487L 17.908069 56.0919C 7.363969 45.5477 7.363969 28.4523 17.908069 17.9081C 28.452269 7.364 45.547669 7.364 56.091869 17.9081L 61.748669 23.565C 62.920269 24.7365 64.819769 24.7365 65.991369 23.565C 73.801869 15.7545 86.465169 15.7545 94.275669 23.565C 102.086069 31.3754 102.086069 44.0388 94.275669 51.8492L 51.849169 94.2757C 44.038769 102.0861 31.375469 102.0861 23.564969 94.2757ZM 41.243269 27.1007C 45.148469 31.0059 45.148469 37.3376 41.243269 41.2428C 37.337969 45.1481 31.006369 45.1481 27.101069 41.2428C 23.195869 37.3376 23.195869 31.0059 27.101069 27.1007C 31.006369 23.1954 37.337969 23.1954 41.243269 27.1007Z"></path></g></g></g><g id="g-root--1.g-0a_fr_qwiwngv4getl-stroke" data-item-order="-553510" transform="translate(209.3280029296875, 422.926025390625)"><g id="-1.g-0a_fr_qwiwngv4getl-stroke" fill="none" stroke-linecap="round" stroke-linejoin="round" stroke-miterlimit="4" stroke="#484848" stroke-width="2"><g><path d="M 111.7026 48.1063C 111.7026 51.42 114.3889 54.1063 117.7026 54.1063L 233.7026 54.1063L 218.2884 38.6921C 217.9133 38.317 217.4046 38.1063 216.8742 38.1063L 210.5311 38.1063C 210.0006 38.1063 209.4919 38.317 209.1169 38.6921L 201.7026 46.1063L 196.2884 40.6921C 195.9133 40.317 195.4046 40.1063 194.8742 40.1063L 190.5311 40.1063C 190.0006 40.1063 189.4919 40.317 189.1169 40.6921L 183.7026 46.1063L 179.1169 41.5205C 178.3358 40.7395 177.0695 40.7395 176.2884 41.5205L 171.7026 46.1063L 164.1169 38.5205C 163.3358 37.7395 162.0695 37.7395 161.2884 38.5205L 153.7026 46.1063L 149.1169 41.5205C 148.3358 40.7395 147.0695 40.7395 146.2884 41.5205L 141.7026 46.1063L 136.2884 40.6921C 135.9133 40.317 135.4046 40.1063 134.8742 40.1063L 130.5311 40.1063C 130.0006 40.1063 129.4919 40.317 129.1169 40.6921L 123.7026 46.1063L 118.2884 40.6921C 117.9133 40.317 117.4046 40.1063 116.8742 40.1063L 111.7026 40.1063L 111.7026 48.1063ZM 114.7017 68.106C 114.7017 71.4197 117.388 74.106 120.7017 74.106L 221.7002 74.106L 221.7017 74.106L 233.7017 62.106L 233.7002 62.106L 120.7017 62.106C 117.388 62.106 114.7017 64.7923 114.7017 68.106ZM 99.7015 33.1761L 99.702 82.1087C 99.7418 85.4271 102.4126 88.1047 105.7015 88.1047C 108.9917 88.1047 111.6633 85.425 111.7011 82.1048L 211.2162 82.1048C 212.8075 82.1048 214.3336 81.4726 215.4588 80.3474L 221.7002 74.106L 120.7017 74.106C 117.388 74.106 114.7017 71.4197 114.7017 68.106C 114.7017 64.7923 117.388 62.106 120.7017 62.106L 233.7002 62.106L 234.8729 60.9332C 236.435 59.3711 236.435 56.8385 234.8729 55.2764L 233.7026 54.1063L 117.7026 54.1063C 114.3889 54.1063 111.7026 51.42 111.7026 48.1063L 111.7028 46.1048L 111.7015 46.1035L 111.7015 33.1761C 111.7015 29.823 109.0152 27.1048 105.7015 27.1048C 102.3878 27.1048 99.7015 29.823 99.7015 33.1761ZM 63.7491 103.8413C 60.6249 106.9655 55.5596 106.9655 52.4354 103.8413L 12.3431 63.7491C 9.219 60.6249 9.219 55.5596 12.3431 52.4354L 52.4354 12.3431C 55.5596 9.219 60.6249 9.219 63.7491 12.3431L 85.4491 34.0431C 87.6995 36.2936 88.9638 39.3413 88.9638 42.5239C 88.9638 51.6767 88.9638 64.085 88.9638 73.6591C 88.9638 76.8417 87.6995 79.8909 85.4491 82.1413L 63.7491 103.8413ZM 43.3062 48.4888C 48.8291 48.4888 53.3062 52.966 53.3062 58.4888C 53.3062 64.0117 48.8291 68.4888 43.3062 68.4888C 37.7834 68.4888 33.3062 64.0117 33.3062 58.4888C 33.3062 52.966 37.7834 48.4888 43.3062 48.4888Z"></path></g></g></g><g id="g-root-5.g-5_fr_8vvrv0v4hslf-stroke" data-item-order="-553506" transform="translate(688.97265625, 416)"><g id="5.g-5_fr_8vvrv0v4hslf-stroke" fill="none" stroke-linecap="round" stroke-linejoin="round" stroke-miterlimit="4" stroke="#484848" stroke-width="2"><g><path d="M 86.6782 12.4501C 85.0132 10.7191 82.6595 10.000001 80.2577 10.000001L 28.4865 10C 26.0846 10 23.7309 10.7191 22.0659 12.4501C 18.863 15.7799 13.5453 22.7949 10 35.2352L 10.2354 93.5741C 13.7772 105.5105 18.9331 112.293 22.0659 115.5499C 23.7309 117.2809 26.0846 118 28.4865 118L 80.2577 118C 82.6595 118 85.0132 117.2809 86.6782 115.5499C 91.8103 110.2144 102.3721 95.4175 102.3721 64C 102.3721 32.5825 91.8103 17.7856 86.6782 12.4501ZM 75.5198 19.9997C 78.2013 19.9997 80.8156 20.9094 82.4178 23.0596C 86.1573 28.078 92.3726 39.8945 92.3726 62.9997C 92.3726 86.1048 86.1573 97.9213 82.4178 102.9397C 80.8156 105.0899 78.2013 105.9997 75.5198 105.9997L 32.2255 105.9997C 29.5439 105.9997 26.9297 105.0899 25.3274 102.9397C 24.5781 101.9341 23.7294 100.6556 22.8512 99.068C 19.9487 93.8207 24.3761 87.9997 30.3726 87.9997C 33.6863 87.9997 36.3726 85.3134 36.3726 81.9997L 36.3726 45.9997C 36.3726 42.686 33.6863 39.9997 30.3726 39.9997C 24.0329 39.9997 19.2703 33.9497 22.1314 28.2923C 23.2616 26.0575 24.3749 24.338 25.3274 23.0596C 26.9297 20.9094 29.5439 19.9997 32.2255 19.9997L 75.5198 19.9997Z"></path></g></g></g><g id="g-root-4.g-4_fr_1um5sjwv4hqth-stroke" data-item-order="-553502" transform="translate(609.96484375, 243.78515625)"><g id="4.g-4_fr_1um5sjwv4hqth-stroke" fill="none" stroke-linecap="round" stroke-linejoin="round" stroke-miterlimit="4" stroke="#484848" stroke-width="2"><g><path d="M 108.5154 30.632C 107.4011 26.5177 104.1878 23.3032 100.0738 22.1874L 56.6825 10.4187C 52.5329 9.2932 48.0983 10.4738 45.0576 13.5134L 13.5165 45.043C 10.4758 48.0826 9.2936 52.5168 10.4176 56.6668L 16.8765 80.5153L 50.159 113.8086L 74.0033 120.2758C 78.1529 121.4012 82.5875 120.2207 85.6283 117.181L 117.1693 85.6515C 120.2101 82.6118 121.3923 78.1776 120.2683 74.0277L 108.5154 30.632ZM 56.6879 20.9991L 95.62 31.5697C 97.6757 32.1278 99.2813 33.7341 99.8387 35.79L 110.3951 74.7259C 110.9578 76.8013 110.3668 79.0191 108.8461 80.5394L 80.5237 108.8515C 79.0029 110.3717 76.7848 110.9619 74.7096 110.3984L 59.3898 106.2389C 59.285 106.2104 59.2501 106.0794 59.3269 106.0026C 61.6705 103.6599 61.6712 99.8609 59.3285 97.5173L 33.8772 72.0569C 31.5345 69.7133 27.7355 69.7126 25.392 72.0553C 25.3153 72.1319 25.1846 72.0971 25.1562 71.9925L 21.0024 56.6716C 20.4397 54.5962 21.0307 52.3784 22.5515 50.8582L 50.8739 22.5461C 52.3947 21.0258 54.6127 20.4357 56.6879 20.9991Z"></path></g></g></g><g id="g-root-3.g-3_fr_1hapa6kv4hsef-stroke" data-item-order="-553498" transform="translate(441, 172)"><g id="3.g-3_fr_1hapa6kv4hsef-stroke" fill="none" stroke-linecap="round" stroke-linejoin="round" stroke-miterlimit="4" stroke="#484848" stroke-width="2"><g><path d="M 88.7632 112C 106.1294 103.0226 118 84.8976 118 64C 118 34.1766 93.8234 10 64 10C 34.1766 10 10 34.1766 10 64C 10.000001 84.9326 21.9104 103.0833 39.324 112.045L 88.7632 112ZM 40.0003 94.0006C 40.0003 90.6869 42.6866 88.0006 46.0003 88.0006L 82.0003 88.0006C 85.314 88.0006 88.0003 90.6869 88.0003 94.0006C 88.0003 96.8946 91.1801 98.566 93.3317 96.6306C 102.2605 88.5991 107.8753 76.9555 107.8753 64.0006C 107.8753 39.7691 88.2318 20.1256 64.0003 20.1256C 39.7688 20.1256 20.1253 39.7691 20.1253 64.0006C 20.1253 76.9555 25.7401 88.5991 34.6689 96.6306C 36.8205 98.566 40.0003 96.8946 40.0003 94.0006Z"></path></g></g></g><g id="g-root-2.g-2_fr_zk1qrwv4hrlt-stroke" data-item-order="-553494" transform="translate(275.8818664550781, 250.8828125)"><g id="2.g-2_fr_zk1qrwv4hrlt-stroke" fill="none" stroke-linecap="round" stroke-linejoin="round" stroke-miterlimit="4" stroke="#484848" stroke-width="2"><g><path d="M 73.29437 22.382701L 71.45577 20.544201C 57.39697 6.4853 34.60297 6.4853 20.54417 20.544201C 6.48527 34.603001 6.48527 57.397001 20.54417 71.455801L 22.38267 73.2944C 14.66547 84.942601 15.93817 100.791101 26.20097 111.053801C 37.91667 122.769601 56.91167 122.769601 68.62737 111.053801L 111.05377 68.627401C 122.76957 56.911701 122.76957 37.916701 111.05377 26.201001C 100.79107 15.938201 84.94257 14.665501 73.29437 22.382701ZM 33.27207 103.982801C 25.46157 96.172301 25.46157 83.509001 33.27207 75.698501C 34.44367 74.526901 34.44367 72.6274 33.27207 71.455801L 27.61517 65.799001C 17.07107 55.254801 17.07107 38.159401 27.61517 27.615201C 38.15937 17.071101 55.25477 17.071101 65.79897 27.615201L 71.45577 33.272101C 72.62737 34.443601 74.52687 34.443601 75.69847 33.272101C 83.50897 25.461601 96.17227 25.461601 103.98267 33.272101C 111.79317 41.082601 111.79317 53.745901 103.98277 61.556301L 61.55637 103.982801C 53.74587 111.793201 41.08257 111.793201 33.27207 103.982801Z"></path></g></g></g><g id="g-root-1.g-1_fr_m8l8ekv4ht6r-stroke" data-item-order="-553490" transform="translate(195.99996948242188, 410)"><g id="1.g-1_fr_m8l8ekv4ht6r-stroke" fill="none" stroke-linecap="round" stroke-linejoin="round" stroke-miterlimit="4" stroke="#484848" stroke-width="2"><g><path d="M 13.514731 62.5456C 8.828431 67.2319 8.828431 74.8299 13.514731 79.5162L 62.545631 128.5471C 67.231931 133.2334 74.829931 133.2334 79.516231 128.5471L 113.030031 95.0332L 113.029531 47.0281L 79.516231 13.5147C 74.829931 8.8284 67.231931 8.8284 62.545631 13.5147L 13.514731 62.5456ZM 65.763431 116.7658L 25.671231 76.6736C 22.547031 73.5494 22.547031 68.4841 25.671231 65.3599L 65.763431 25.2677C 68.887631 22.1435 73.952931 22.1435 77.077131 25.2677L 98.777131 46.9677C 101.027631 49.2181 102.291831 52.2663 102.291831 55.4489C 102.291831 64.2652 102.291831 77.7989 102.291831 86.5841C 102.291831 89.7667 101.027631 92.8154 98.777131 95.0659L 77.077131 116.7658C 73.952931 119.89 68.887631 119.89 65.763431 116.7658Z"></path></g></g></g><g id="g-root-tx_involvem_18k22mkv4htdx-stroke" data-item-order="0" transform="translate(87, 231)"></g><g id="g-root-tx_codingph_3zm4sv4hrew-stroke" data-item-order="0" transform="translate(734.791015625, 171)"></g><g id="g-root-tx_emphasis_1heg4p8v4hqf5-stroke" data-item-order="0" transform="translate(734.791015625, 231)"></g><g id="g-root-tx_ricardoc_1umsj4cv4gdmz-stroke" data-item-order="0" transform="translate(411, 519)"></g><g id="g-root-tx_projecte_1qbc34cv4hr0s-stroke" data-item-order="0" transform="translate(87, 171)"></g><g id="g-root-tx_collabor_141472kv4hszq-stroke" data-item-order="0" transform="translate(807.0499877929688, 381)"></g><g id="g-root-tx_technica_mdl13gv4hslq-stroke" data-item-order="0" transform="translate(15, 405)"></g><g id="g-root-tx_itmanage_dgp2ocv4hs03-stroke" data-item-order="0" transform="translate(412, 75)"></g><g id="g-root-tx_educatio_v7cm30v4hssq-stroke" data-item-order="0" transform="translate(412, 39)"></g><g id="g-root-tx_crafting_1uneqq4v4hszp-stroke" data-item-order="0" transform="translate(153.5, -9)"></g><g id="g-root-tx_proficie_4mxhosv4hrt3-stroke" data-item-order="0" transform="translate(15, 441)"></g><g id="g-root-code_1lxe098v4hqtc-stroke" data-item-order="0" transform="translate(459, 435)"><g id="code_1lxe098v4hqtc-stroke" fill="none" stroke-linecap="round" stroke-linejoin="round" stroke-miterlimit="4" stroke="#484848" stroke-width="2"><g><path d="M 37.450058 22.262531L 37.450058 15.36253C 37.450058 13.562531 38.650063 12.362518 40.449997 12.362518L 69.25 12.362518C 69.850006 12.362518 70.75 12.662518 71.050003 12.962518L 78.25 18.96253C 78.850006 19.562531 79.449997 20.46253 79.449997 21.36253L 79.449997 58.862503C 79.449997 60.662502 78.25 61.862503 76.449997 61.862503L 53.949997 61.862503M 10 10M 49.449997 24.962471L 44.949997 29.462471L 49.449997 33.962471M 10 10M 67.449997 24.962471L 71.949997 29.462471L 67.449997 33.962471M 10 10M 55.449997 35.462563L 61.449997 21.962561M 50.650002 79.637497C 47.949997 71.837494 40.449997 66.137497 31.749939 66.137497C 23.04994 66.137497 15.24994 71.837494 12.549928 79.637497M 31.450001 39.13747L 31.450001 30.13747M 14.949699 47.837502L 47.949699 47.837502M 19.1497 51.137497C 19.449699 57.737503 24.849701 63.137497 31.449699 63.137497C 38.349701 63.137497 43.749699 57.737503 43.749699 50.837502L 43.749699 45.4375C 43.749699 38.537472 38.349701 33.13747 31.449699 33.13747C 24.849701 33.13747 19.449699 38.537472 19.1497 45.137497L 19.1497 51.137497Z"></path></g></g></g><g id="g-root-tx_openness_hun5jgv4hs7j-stroke" data-item-order="0" transform="translate(807.0499877929688, 441)"></g></g></g></svg>