<?xml version="1.0" encoding="utf-8" standalone="yes"?>
<!DOCTYPE svg PUBLIC "-//W3C//DTD SVG 1.1//EN" "http://www.w3.org/Graphics/SVG/1.1/DTD/svg11.dtd">
<svg width="1082" height="415" viewBox="0 0 1082 415" style="fill:none;stroke:none;fill-rule:evenodd;clip-rule:evenodd;stroke-linecap:round;stroke-linejoin:round;stroke-miterlimit:1.5;" version="1.1" xmlns="http://www.w3.org/2000/svg" xmlns:xlink="http://www.w3.org/1999/xlink"><style id="fontImports">@import url("https://fonts.googleapis.com/css2?family=Roboto:wght@400;700&amp;display=block");</style><rect id="" x="0" y="0" width="1082" height="414" style="fill: #ffffff;"></rect><g id="items" style="isolation: isolate"><g id="blend" style="mix-blend-mode: normal"><g id="g-root-tf_2rpu4xc639l-fill" data-item-order="-444960" transform="translate(-9, -9)"><g id="tf_2rpu4xc639l-fill" stroke="none" fill="#ffffff"><g><path d="M 10 10L 1090 10L 1090 422L 10 422Z"></path></g></g></g><g id="g-root-0.cu_sy_1usfez0xcd3ie-fill" data-item-order="-35721" transform="translate(456.99981689453125, 159)"><g id="0.cu_sy_1usfez0xcd3ie-fill" stroke="none" fill="#f5f5f5"><g><path d="M 54.78 190.78L 60.38 193.98L 61.98 189.18L 66 193.18L 70.02 189.18L 71.62 193.98L 77.22 190.78L 122 130L 94 142L 38 142L 10 130L 54.78 190.78ZM 94 82L 38 82L 10 94L 38 106L 94 106L 122 94L 94 82ZM 66 98.8C 54.95 98.8 46 96.65 46 94C 46 91.35 54.95 89.2 66 89.2C 77.05 89.2 86 91.35 86 94C 86 96.65 77.05 98.8 66 98.8ZM 94 10L 38 10L 10 22L 38 34L 94 34L 122 22L 94 10ZM 66 26.8C 54.95 26.8 46 24.65 46 22C 46 19.35 54.95 17.2 66 17.2C 77.05 17.2 86 19.35 86 22C 86 24.65 77.05 26.8 66 26.8Z"></path></g></g></g><g id="g-root-0.cu_1_sy_1464vbgxcd3if-fill" data-item-order="-35719" transform="translate(457, 67)"><g id="0.cu_1_sy_1464vbgxcd3if-fill" stroke="none" fill="#f5f5f5"><g><path d="M 54.779785 282.780176L 60.379785 285.980176L 61.979785 281.180176L 65.999785 285.180176L 70.019785 281.180176L 71.619785 285.980176L 77.219785 282.780176L 65.999785 298.000176L 54.779785 282.780176ZM 65.999756 190.800195C 77.045456 190.800195 85.999756 188.651195 85.999756 186.000195C 85.999756 183.349195 77.045456 181.200195 65.999756 181.200195C 54.954056 181.200195 45.999756 183.349195 45.999756 186.000195C 45.999756 188.651195 54.954056 190.800195 65.999756 190.800195ZM 65.999756 118.800195C 77.045456 118.800195 85.999756 116.651195 85.999756 114.000195C 85.999756 111.349195 77.045456 109.200195 65.999756 109.200195C 54.954056 109.200195 45.999756 111.349195 45.999756 114.000195C 45.999756 116.651195 54.954056 118.800195 65.999756 118.800195ZM 10 34L 38 46L 94 46L 122 34L 122 42L 94 54L 38 54L 10 42L 10 34ZM 10 26L 38 38L 94 38L 122 26L 122 34L 94 46L 38 46L 10 34L 10 26ZM 10 26L 38 38L 94 38L 122 26L 122 10L 94 22L 38 22L 10 10L 10 26Z"></path></g></g></g><g id="g-root-3.cu_sy_quocy4xcd53c-fill" data-item-order="-35715" transform="translate(540.9998168945312, 243)"><g id="3.cu_sy_quocy4xcd53c-fill" stroke="none" fill="#f4ffdc"><g><path d="M 10 58L 38 46L 38 10L 10 22L 10 58Z"></path></g></g></g><g id="g-root-3.cu_1_sy_940tjgxcd4ap-fill" data-item-order="-35713" transform="translate(484.99981689453125, 255)"><g id="3.cu_1_sy_940tjgxcd4ap-fill" stroke="none" fill="#f4ffdc"><g><path d="M 66 10L 10 10L 10 46L 66 46L 66 10Z"></path></g></g></g><g id="g-root-3.cu_2_sy_1utod58xcd5oi-fill" data-item-order="-35711" transform="translate(456.9997863769531, 243)"><g id="3.cu_2_sy_1utod58xcd5oi-fill" stroke="none" fill="#f4ffdc"><g><path d="M 38 22L 10 10L 10 46L 38 58L 38 22Z"></path></g></g></g><g id="g-root-2.cu_sy_1hiubv0xcd43n-fill" data-item-order="-35707" transform="translate(540.9998168945312, 171)"><g id="2.cu_sy_1hiubv0xcd43n-fill" stroke="none" fill="#e8f9ff"><g><path d="M 10 58L 38 46L 38 10L 10 22L 10 58Z"></path></g></g></g><g id="g-root-2.cu_1_sy_147dthoxcd5ok-fill" data-item-order="-35705" transform="translate(484.99981689453125, 183)"><g id="2.cu_1_sy_147dthoxcd5ok-fill" stroke="none" fill="#e8f9ff"><g><path d="M 66 10L 10 10L 10 46L 66 46L 66 10Z"></path></g></g></g><g id="g-root-2.cu_2_sy_i0wrykxcd4wd-fill" data-item-order="-35703" transform="translate(456.9997863769531, 171)"><g id="2.cu_2_sy_i0wrykxcd4wd-fill" stroke="none" fill="#e8f9ff"><g><path d="M 38 22L 10 10L 10 46L 38 58L 38 22Z"></path></g></g></g><g id="g-root-1.cu_sy_4g35akxcehvy-fill" data-item-order="-35699" transform="translate(541, 99)"><g id="1.cu_sy_4g35akxcehvy-fill" stroke="none" fill="#e3fff2"><g><path d="M 10 58L 38 46L 38 10L 10 22L 10 58Z"></path></g></g></g><g id="g-root-1.cu_1_sy_1q5qowcxcej9r-fill" data-item-order="-35697" transform="translate(485, 111)"><g id="1.cu_1_sy_1q5qowcxcej9r-fill" stroke="none" fill="#e3fff2"><g><path d="M 66 10L 10 10L 10 46L 66 46L 66 10Z"></path></g></g></g><g id="g-root-1.cu_2_sy_1haq5qkxcehog-fill" data-item-order="-35695" transform="translate(457, 99)"><g id="1.cu_2_sy_1haq5qkxcehog-fill" stroke="none" fill="#e3fff2"><g><path d="M 38 22L 10 10L 10 46L 38 58L 38 22Z"></path></g></g></g><g id="g-root-1.cu_3_sy_v3mn4cxcek21-fill" data-item-order="-35693" transform="translate(456.99981689453125, 39)"><g id="1.cu_3_sy_v3mn4cxcek21-fill" stroke="none" fill="#e3fff2"><g><path d="M 38.000169 50L 94.000169 50L 121.999969 38C 121.999969 38 122.529969 10 66.000169 10C 9.470169 10 10.000169 38 10.000169 38L 38.000169 50Z"></path></g></g></g><g id="g-root-tx_experien_8z10ukxceia7-fill" data-item-order="0" transform="translate(260.999755859375, 105)"><g id="tx_experien_8z10ukxceia7-fill" stroke="none" fill="#484848"><g><text style="font: bold 20px Roboto, sans-serif; white-space: pre;" font-weight="bold" font-size="20px" font-family="Roboto, sans-serif"><tspan x="16.67" y="34" dominant-baseline="ideographic">Experience</tspan></text></g></g></g><g id="g-root-1_zqbgcsxc1x50-fill" data-item-order="0" transform="translate(380.999755859375, 93)"></g><g id="g-root-tx_4yearsin_m9v24sxcejv2-fill" data-item-order="0" transform="translate(236.999755859375, 141)"><g id="tx_4yearsin_m9v24sxcejv2-fill" stroke="none" fill="#484848"><g><text style="font: 15px Roboto, sans-serif; white-space: pre;" font-size="15px" font-family="Roboto, sans-serif"><tspan x="19.31" y="31" dominant-baseline="ideographic">4 years in the field</tspan></text></g></g></g><g id="g-root-ligh_4ju2z0xc1ukq-fill" data-item-order="0" transform="translate(596.9998168945312, 165)"></g><g id="g-root-tx_technolo_zlbki4xceia5-fill" data-item-order="0" transform="translate(656.9998779296875, 177)"><g id="tx_technolo_zlbki4xceia5-fill" stroke="none" fill="#484848"><g><text style="font: bold 20px Roboto, sans-serif; white-space: pre;" font-weight="bold" font-size="20px" font-family="Roboto, sans-serif"><tspan x="12" y="34" dominant-baseline="ideographic">Technologies</tspan></text></g></g></g><g id="g-root-tx_developm_252fgxcehoj-fill" data-item-order="0" transform="translate(236.999755859375, 225)"><g id="tx_developm_252fgxcehoj-fill" stroke="none" fill="#484848"><g><text style="font: bold 20px Roboto, sans-serif; white-space: pre;" font-weight="bold" font-size="20px" font-family="Roboto, sans-serif"><tspan x="21.58" y="34" dominant-baseline="ideographic">Development </tspan><tspan x="59.28" y="58" dominant-baseline="ideographic">Lifecycle</tspan></text></g></g></g><g id="g-root-tx_speciali_1lrsm18xcej2c-fill" data-item-order="0" transform="translate(656.9998779296875, 213)"><g id="tx_speciali_1lrsm18xcej2c-fill" stroke="none" fill="#484848"><g><text style="font: 15px Roboto, sans-serif; white-space: pre;" font-size="15px" font-family="Roboto, sans-serif"><tspan x="12" y="28" dominant-baseline="ideographic">Specializes in Vue.js and </tspan><tspan x="12" y="46" dominant-baseline="ideographic">React</tspan></text></g></g></g><g id="g-root-pers_1q8v2bwxcekg8-fill" data-item-order="0" transform="translate(380.999755859375, 237)"></g><g id="g-root-tx_involves_hsslu4xceih6-fill" data-item-order="0" transform="translate(224.999755859375, 285)"><g id="tx_involves_hsslu4xceih6-fill" stroke="none" fill="#484848"><g><text style="font: 15px Roboto, sans-serif; white-space: pre;" font-size="15px" font-family="Roboto, sans-serif"><tspan x="19.5" y="28" dominant-baseline="ideographic">Involves planning to </tspan><tspan x="73.67" y="46" dominant-baseline="ideographic">deployment</tspan></text></g></g></g><g id="g-root-tf_2rpu4xc639l-stroke" data-item-order="-444960" transform="translate(-9, -9)"></g><g id="g-root-0.cu_sy_1usfez0xcd3ie-stroke" data-item-order="-35721" transform="translate(456.99981689453125, 159)"><g id="0.cu_sy_1usfez0xcd3ie-stroke" fill="none" stroke-linecap="round" stroke-linejoin="round" stroke-miterlimit="4" stroke="#969696" stroke-width="2"><g><path d="M 54.78 190.78L 60.38 193.98L 61.98 189.18L 66 193.18L 70.02 189.18L 71.62 193.98L 77.22 190.78L 122 130L 94 142L 38 142L 10 130L 54.78 190.78ZM 94 82L 38 82L 10 94L 38 106L 94 106L 122 94L 94 82ZM 66 98.8C 54.95 98.8 46 96.65 46 94C 46 91.35 54.95 89.2 66 89.2C 77.05 89.2 86 91.35 86 94C 86 96.65 77.05 98.8 66 98.8ZM 94 10L 38 10L 10 22L 38 34L 94 34L 122 22L 94 10ZM 66 26.8C 54.95 26.8 46 24.65 46 22C 46 19.35 54.95 17.2 66 17.2C 77.05 17.2 86 19.35 86 22C 86 24.65 77.05 26.8 66 26.8Z"></path></g></g></g><g id="g-root-0.cu_1_sy_1464vbgxcd3if-stroke" data-item-order="-35719" transform="translate(457, 67)"><g id="0.cu_1_sy_1464vbgxcd3if-stroke" fill="none" stroke-linecap="round" stroke-linejoin="round" stroke-miterlimit="4" stroke="#969696" stroke-width="2"><g><path d="M 54.779785 282.780176L 60.379785 285.980176L 61.979785 281.180176L 65.999785 285.180176L 70.019785 281.180176L 71.619785 285.980176L 77.219785 282.780176L 65.999785 298.000176L 54.779785 282.780176ZM 65.999756 190.800195C 77.045456 190.800195 85.999756 188.651195 85.999756 186.000195C 85.999756 183.349195 77.045456 181.200195 65.999756 181.200195C 54.954056 181.200195 45.999756 183.349195 45.999756 186.000195C 45.999756 188.651195 54.954056 190.800195 65.999756 190.800195ZM 65.999756 118.800195C 77.045456 118.800195 85.999756 116.651195 85.999756 114.000195C 85.999756 111.349195 77.045456 109.200195 65.999756 109.200195C 54.954056 109.200195 45.999756 111.349195 45.999756 114.000195C 45.999756 116.651195 54.954056 118.800195 65.999756 118.800195ZM 10 34L 38 46L 94 46L 122 34L 122 42L 94 54L 38 54L 10 42L 10 34ZM 10 26L 38 38L 94 38L 122 26L 122 34L 94 46L 38 46L 10 34L 10 26ZM 10 26L 38 38L 94 38L 122 26L 122 10L 94 22L 38 22L 10 10L 10 26Z"></path></g></g></g><g id="g-root-3.cu_sy_quocy4xcd53c-stroke" data-item-order="-35715" transform="translate(540.9998168945312, 243)"><g id="3.cu_sy_quocy4xcd53c-stroke" fill="none" stroke-linecap="round" stroke-linejoin="round" stroke-miterlimit="4" stroke="#92bd39" stroke-width="2"><g><path d="M 10 58L 38 46L 38 10L 10 22L 10 58Z"></path></g></g></g><g id="g-root-3.cu_1_sy_940tjgxcd4ap-stroke" data-item-order="-35713" transform="translate(484.99981689453125, 255)"><g id="3.cu_1_sy_940tjgxcd4ap-stroke" fill="none" stroke-linecap="round" stroke-linejoin="round" stroke-miterlimit="4" stroke="#92bd39" stroke-width="2"><g><path d="M 66 10L 10 10L 10 46L 66 46L 66 10Z"></path></g></g></g><g id="g-root-3.cu_2_sy_1utod58xcd5oi-stroke" data-item-order="-35711" transform="translate(456.9997863769531, 243)"><g id="3.cu_2_sy_1utod58xcd5oi-stroke" fill="none" stroke-linecap="round" stroke-linejoin="round" stroke-miterlimit="4" stroke="#92bd39" stroke-width="2"><g><path d="M 38 22L 10 10L 10 46L 38 58L 38 22Z"></path></g></g></g><g id="g-root-2.cu_sy_1hiubv0xcd43n-stroke" data-item-order="-35707" transform="translate(540.9998168945312, 171)"><g id="2.cu_sy_1hiubv0xcd43n-stroke" fill="none" stroke-linecap="round" stroke-linejoin="round" stroke-miterlimit="4" stroke="#1eabda" stroke-width="2"><g><path d="M 10 58L 38 46L 38 10L 10 22L 10 58Z"></path></g></g></g><g id="g-root-2.cu_1_sy_147dthoxcd5ok-stroke" data-item-order="-35705" transform="translate(484.99981689453125, 183)"><g id="2.cu_1_sy_147dthoxcd5ok-stroke" fill="none" stroke-linecap="round" stroke-linejoin="round" stroke-miterlimit="4" stroke="#1eabda" stroke-width="2"><g><path d="M 66 10L 10 10L 10 46L 66 46L 66 10Z"></path></g></g></g><g id="g-root-2.cu_2_sy_i0wrykxcd4wd-stroke" data-item-order="-35703" transform="translate(456.9997863769531, 171)"><g id="2.cu_2_sy_i0wrykxcd4wd-stroke" fill="none" stroke-linecap="round" stroke-linejoin="round" stroke-miterlimit="4" stroke="#1eabda" stroke-width="2"><g><path d="M 38 22L 10 10L 10 46L 38 58L 38 22Z"></path></g></g></g><g id="g-root-1.cu_sy_4g35akxcehvy-stroke" data-item-order="-35699" transform="translate(541, 99)"><g id="1.cu_sy_4g35akxcehvy-stroke" fill="none" stroke-linecap="round" stroke-linejoin="round" stroke-miterlimit="4" stroke="#3cc583" stroke-width="2"><g><path d="M 10 58L 38 46L 38 10L 10 22L 10 58Z"></path></g></g></g><g id="g-root-1.cu_1_sy_1q5qowcxcej9r-stroke" data-item-order="-35697" transform="translate(485, 111)"><g id="1.cu_1_sy_1q5qowcxcej9r-stroke" fill="none" stroke-linecap="round" stroke-linejoin="round" stroke-miterlimit="4" stroke="#3cc583" stroke-width="2"><g><path d="M 66 10L 10 10L 10 46L 66 46L 66 10Z"></path></g></g></g><g id="g-root-1.cu_2_sy_1haq5qkxcehog-stroke" data-item-order="-35695" transform="translate(457, 99)"><g id="1.cu_2_sy_1haq5qkxcehog-stroke" fill="none" stroke-linecap="round" stroke-linejoin="round" stroke-miterlimit="4" stroke="#3cc583" stroke-width="2"><g><path d="M 38 22L 10 10L 10 46L 38 58L 38 22Z"></path></g></g></g><g id="g-root-1.cu_3_sy_v3mn4cxcek21-stroke" data-item-order="-35693" transform="translate(456.99981689453125, 39)"><g id="1.cu_3_sy_v3mn4cxcek21-stroke" fill="none" stroke-linecap="round" stroke-linejoin="round" stroke-miterlimit="4" stroke="#3cc583" stroke-width="2"><g><path d="M 38.000169 50L 94.000169 50L 122.000169 38C 122.000169 38 122.530169 10 66.000169 10C 9.470169 10 10.000169 38 10.000169 38L 38.000169 50Z"></path></g></g></g><g id="g-root-tx_experien_8z10ukxceia7-stroke" data-item-order="0" transform="translate(260.999755859375, 105)"></g><g id="g-root-1_zqbgcsxc1x50-stroke" data-item-order="0" transform="translate(380.999755859375, 93)"><g id="1_zqbgcsxc1x50-stroke" fill="none" stroke-linecap="round" stroke-linejoin="round" stroke-miterlimit="4" stroke="#3cc583" stroke-width="2"><g><path d="M 46.748001 17.962C 46.748001 20.723423 44.509426 22.962 41.748001 22.962C 38.986576 22.962 36.748001 20.723423 36.748001 17.962L 36.748001 15.962C 36.748001 13.200577 38.986576 10.962 41.748001 10.962C 44.509426 10.962 46.748001 13.200577 46.748001 15.962ZM 53.641998 45.599998L 53.695999 38.414001C 53.642036 38.144806 53.551178 37.88435 53.425999 37.639999C 53.414001 37.615997 53.414001 37.59 53.402 37.566002L 48.402 28.066C 47.93581 27.179552 47.057999 26.584219 46.061981 26.478994C 45.065964 26.37377 44.08313 26.772535 43.442001 27.542L 38.986 32.889999L 32.360001 35.120003C 30.789526 35.648697 29.944904 37.350323 30.473389 38.920868C 31.001875 40.491417 32.703381 41.336269 34.274002 40.807999L 41.704002 38.307999C 42.230186 38.130684 42.696835 37.810814 43.052002 37.384003L 45.18 34.827999L 47.141998 38.290001L 47.141998 39.464001M 39.43 39.071999C 41.060699 40.123425 42.532326 41.403095 43.799999 42.872002C 51.639999 51.889999 56.478001 53.456001 56.478001 53.456001M 32.071999 16.452L 52.248001 16.462M 25.700001 36.464001C 27.164511 36.154907 28.664185 36.045914 30.157999 36.139999M 19.666 41C 19.716354 43.299271 17.899012 45.206902 15.6 45.268002C 13.29626 45.213394 11.471713 43.303841 11.522 41C 11.522 38.638 15.594 33.512001 15.594 33.512001C 15.594 33.512001 19.666 38.627998 19.666 41ZM 11.522 50.037998C 13.842794 51.826923 15.582466 54.262466 16.521999 57.038002M 21.521999 50.037998C 19.201206 51.826923 17.461535 54.262466 16.521999 57.038002M 27.521999 50.037998C 29.842794 51.826923 31.582466 54.262466 32.522003 57.038002M 37.521999 50.037998C 35.20121 51.826923 33.461533 54.262466 32.522003 57.038002M 52.799999 56.018002C 51.876194 56.989956 50.453556 57.301243 49.208252 56.803917C 47.962952 56.306587 47.146122 55.100937 47.146 53.759998L 47.146 51.972"></path></g></g></g><g id="g-root-tx_4yearsin_m9v24sxcejv2-stroke" data-item-order="0" transform="translate(236.999755859375, 141)"></g><g id="g-root-ligh_4ju2z0xc1ukq-stroke" data-item-order="0" transform="translate(596.9998168945312, 165)"><g id="ligh_4ju2z0xc1ukq-stroke" fill="none" stroke-linecap="round" stroke-linejoin="round" stroke-miterlimit="4" stroke="#1eabda" stroke-width="2"><g><path d="M 32.477 43.5L 31.1931 53.6323C 31.0678 54.6216 32.2961 55.1551 32.93 54.3853C 34.6797 52.2606 37.2078 49.1796 39.9046 45.8893M 49.8879 33.6976C 50.9199 32.4365 51.8043 31.3555 52.4702 30.5414C 53.0043 29.8885 52.5394 28.9089 51.6959 28.9089L 49.4389 28.9089M 20.0531 38.608L 16.33032 38.608C 15.48234 38.608 15.01886 37.6193 15.56195 36.9681L 18.51951 33.4217M 26.742 23.5643C 29.9179 19.75771 33.0029 16.06115 35.0433 13.61905C 35.6839 12.85243 36.9228 13.39687 36.7939 14.3875L 35.7262 22.5924M 30.5983 39.8679L 34.4615 26.8724C 34.6521 26.2313 34.1718 25.5874 33.503 25.5874L 31.6262 25.5874C 31.1807 25.5874 30.7889 25.8821 30.6654 26.3101L 27.5964 36.9419C 27.5262 37.1853 27.18 37.1818 27.1147 36.9371L 24.2822 26.3294C 24.1654 25.8918 23.769 25.5874 23.3161 25.5874L 21.33 25.5874C 20.6643 25.5874 20.1845 26.2255 20.3693 26.865L 24.1199 39.8458C 24.4908 41.1294 25.6659 42.013 27.002 42.013L 27.7227 42.013C 29.0503 42.013 30.22 41.1404 30.5983 39.8679ZM 40.6635 38.5986C 39.781 38.5986 38.8773 38.4329 38.1052 38.1975C 37.4753 38.0054 36.7583 38.3537 36.6235 38.9982L 36.3297 40.4027C 36.2377 40.8423 36.4501 41.2917 36.8748 41.4377C 37.7849 41.7506 39.1096 42.0135 40.4776 42.0135C 44.7982 42.0135 47.0001 39.7708 47.0001 36.9323C 47.0001 34.8833 45.8649 33.2994 43.159 32.1901C 41.1846 31.357 40.4849 30.9937 40.4849 30.2187C 40.4849 29.5066 41.1724 28.9786 42.4691 28.9786C 43.2205 28.9786 43.8686 29.0912 44.4057 29.2414C 45.0177 29.4125 45.697 29.0921 45.8436 28.4738L 46.1625 27.1295C 46.2725 26.6655 46.0411 26.1824 45.5874 26.0356C 44.7747 25.7726 43.7455 25.5879 42.496 25.5879C 38.5179 25.5879 36.3136 27.7919 36.3136 30.5626C 36.3136 32.5825 37.713 34.1519 40.4017 35.2829C 42.1045 35.9635 42.814 36.4431 42.814 37.2496C 42.814 38.0561 42.0752 38.5986 40.6635 38.5986Z"></path></g></g></g><g id="g-root-tx_technolo_zlbki4xceia5-stroke" data-item-order="0" transform="translate(656.9998779296875, 177)"></g><g id="g-root-tx_developm_252fgxcehoj-stroke" data-item-order="0" transform="translate(236.999755859375, 225)"></g><g id="g-root-tx_speciali_1lrsm18xcej2c-stroke" data-item-order="0" transform="translate(656.9998779296875, 213)"></g><g id="g-root-pers_1q8v2bwxcekg8-stroke" data-item-order="0" transform="translate(380.999755859375, 237)"><g id="pers_1q8v2bwxcekg8-stroke" fill="none" stroke-linecap="round" stroke-linejoin="round" stroke-miterlimit="4" stroke="#92bd39" stroke-width="2"><g><path d="M 24.25008 29.349979L 24.25008 23.349979M 13.24988 35.150002L 35.25 35.150002M 37.049999 56.349998C 35.25 51.150002 30.25 47.349998 24.45002 47.349998C 18.650021 47.349998 13.45002 51.150002 11.650024 56.349998M 16.049881 37.349998C 16.24988 41.75 19.84988 45.349998 24.24988 45.349998C 28.84988 45.349998 32.449799 41.75 32.449799 37.150002L 32.449799 33.549999C 32.449799 28.94998 28.84988 25.349979 24.24988 25.349979C 19.84988 25.349979 16.24988 28.94998 16.049881 33.349998L 16.049881 37.349998ZM 44.349998 23.650021C 50.977402 23.650021 56.349998 20.963741 56.349998 17.650021C 56.349998 14.33632 50.977402 11.650024 44.349998 11.650024C 37.722603 11.650024 32.349998 14.33632 32.349998 17.650021C 32.349998 20.963741 37.722603 23.650021 44.349998 23.650021ZM 39.950001 32.25C 41.349998 32.450001 42.75 32.650002 44.349998 32.650002C 50.950001 32.650002 56.349998 30.049999 56.349998 26.650021L 56.349998 17.650021M 32.349998 17.650021L 32.349998 22.05002M 39.950001 41.25C 41.349998 41.450001 42.75 41.650002 44.349998 41.650002C 50.950001 41.650002 56.349998 39.049999 56.349998 35.650002L 56.349998 26.650021"></path></g></g></g><g id="g-root-tx_involves_hsslu4xceih6-stroke" data-item-order="0" transform="translate(224.999755859375, 285)"></g></g></g></svg>